<svg width="18" height="22" viewBox="0 0 18 22" fill="none" xmlns="http://www.w3.org/2000/svg">
<path d="M3.71985 3.97003C4.10271 1.72263 5.58878 0.496194 8.26974 0.21505C8.44393 0.196773 9.03917 0.18548 9.5925 0.189938C10.4103 0.19655 10.6404 0.209887 10.8221 0.261413C11.5917 0.479477 12.0858 0.9863 12.136 1.60892L12.1551 1.84626H12.3516C12.7386 1.84626 13.1589 2.0384 13.4695 2.35728C13.8023 2.69891 14.0422 3.294 14.1366 4.01253C14.2264 4.695 14.2085 5.81147 14.0985 6.39742C14.0797 6.49728 14.0954 6.5218 14.2442 6.62641C14.6019 6.8778 14.707 7.24431 14.6402 8.0072C14.5596 8.92523 14.3975 9.46418 14.1043 9.78764C13.861 10.0562 13.5528 10.1303 13.3051 9.97974C13.2362 9.93787 13.1761 9.90867 13.1715 9.91488C13.167 9.92108 13.1091 10.083 13.043 10.2747C12.6282 11.476 11.7826 12.6339 10.8873 13.2265C10.7388 13.3249 10.6172 13.4213 10.6172 13.4408C10.6172 13.5003 10.8054 13.8517 10.9533 14.0683C11.0941 14.2744 11.4727 14.6558 11.6791 14.7993C11.7534 14.8511 11.9662 14.9092 12.3141 14.9728C13.8261 15.2495 14.9289 15.7438 15.876 16.5693C16.2497 16.895 16.4088 17.1004 16.6337 17.5477C16.7976 17.8737 17.0442 18.5706 17.0863 18.8271L17.1083 18.961L16.6637 19.2878C14.586 20.8154 12.2212 21.6603 9.65178 21.7931C6.61401 21.9501 3.65971 21.0471 1.23675 19.2211C1.03573 19.0695 0.89209 18.9346 0.89209 18.8972C0.89209 18.7775 1.11368 18.0887 1.26142 17.749C1.46516 17.2807 1.70583 16.9357 2.03432 16.641C3.01562 15.7608 4.17257 15.2372 5.75441 14.9576C6.1351 14.8903 6.22624 14.8602 6.36921 14.7547C6.57146 14.6056 6.83292 14.3383 7.01979 14.0898C7.15083 13.9156 7.37548 13.5092 7.37548 13.4464C7.37548 13.4301 7.22848 13.3133 7.04881 13.1869C6.13108 12.5411 5.34092 11.4424 4.93094 10.2419C4.87162 10.0683 4.8208 9.92108 4.818 9.91488C4.81517 9.90867 4.75649 9.93787 4.68759 9.97974C4.61866 10.0216 4.49775 10.056 4.41887 10.056C4.01406 10.0565 3.671 9.65936 3.49778 8.98994C3.40179 8.61893 3.30175 7.64686 3.33223 7.38146C3.36252 7.11793 3.50519 6.82315 3.67406 6.67534L3.80753 6.5585L3.74221 6.19916C3.70197 5.97753 3.67018 5.56919 3.65938 5.13387C3.64444 4.53284 3.65342 4.35999 3.71985 3.97003Z" fill="#915C46"/>
</svg>
