<svg width="16" height="15" viewBox="0 0 16 15" fill="none" xmlns="http://www.w3.org/2000/svg">
<path d="M7.58016 1.30973C7.62391 1.21709 7.69307 1.13879 7.77961 1.08395C7.86614 1.02912 7.96648 1 8.06893 1C8.17138 1 8.27171 1.02912 8.35825 1.08395C8.44479 1.13879 8.51395 1.21709 8.55769 1.30973L10.2965 5.09789L14.5199 5.54508C14.9791 5.59312 15.1648 6.14934 14.822 6.45239L11.6723 9.23992L12.5436 13.3043C12.6378 13.746 12.1537 14.0897 11.7536 13.8652L8.06893 11.8002L4.38333 13.8652C3.98326 14.0906 3.49912 13.746 3.59336 13.3043L4.46556 9.23992L1.31492 6.45239C0.973066 6.14934 1.15785 5.59312 1.61705 5.54508L5.83946 5.09789L7.57924 1.30973H7.58016Z" stroke="#9C9C9C"/>
</svg>
