<svg width="27" height="25" viewBox="0 0 27 25" fill="none" xmlns="http://www.w3.org/2000/svg">
<path d="M12.5538 1.55556C12.6322 1.38939 12.7563 1.24894 12.9115 1.15058C13.0667 1.05222 13.2467 1 13.4305 1C13.6142 1 13.7942 1.05222 13.9494 1.15058C14.1046 1.24894 14.2287 1.38939 14.3071 1.55556L17.426 8.35019L25.0012 9.15228C25.8249 9.23846 26.158 10.2361 25.5431 10.7797L19.8936 15.7795L21.4564 23.0697C21.6254 23.8618 20.7571 24.4783 20.0395 24.0756L13.4305 20.3717L6.81978 24.0756C6.10221 24.48 5.23382 23.8618 5.40286 23.0697L6.96728 15.7795L1.31613 10.7797C0.702961 10.2361 1.03441 9.23846 1.85805 9.15228L9.43157 8.35019L12.5521 1.55556H12.5538Z" stroke="#9C9C9C"/>
</svg>
