<svg width="100" height="100" viewBox="0 0 100 100" fill="none" xmlns="http://www.w3.org/2000/svg">
<path d="M48.1246 9.27733C47.5778 9.64842 46.1325 12.0703 45.859 13.0078C45.527 14.2578 45.9567 15.6836 46.9918 16.7383C47.4606 17.207 47.8512 17.6953 47.8512 17.832C47.8512 17.9492 47.4996 18.6328 47.07 19.3359C46.6403 20.039 46.2887 20.8594 46.2887 21.1523C46.2887 21.9726 47.07 22.6562 48.027 22.6562C48.9254 22.6562 49.3746 22.207 50.4879 20.2148C51.0348 19.2383 51.1911 18.75 51.1911 17.9297C51.2106 16.543 50.9371 15.8984 49.8629 14.8047L48.9645 13.8867L49.7653 12.6562C50.195 11.9726 50.6246 11.1914 50.6832 10.8984C50.82 10.3515 50.527 9.62889 50.0192 9.23826C49.5895 8.90623 48.6129 8.92576 48.1246 9.27733Z" fill="#915C46"/>
<path d="M29.4528 16.9922C29.277 17.1094 28.7106 17.8711 28.1832 18.6914C27.3629 20.0195 27.2457 20.3515 27.1871 21.4844C27.0895 23.0078 27.3825 23.6914 28.5543 24.8633C29.0036 25.2929 29.2575 25.7031 29.1598 25.8398C29.0817 25.9765 28.7106 26.5625 28.3395 27.1484C27.109 29.082 27.5778 30.5664 29.3746 30.4297C30.0582 30.3711 30.2536 30.2539 30.8981 29.3945C32.07 27.8515 32.5192 26.8164 32.4996 25.5859C32.4801 24.3359 32.1481 23.6133 31.1715 22.6758C30.7809 22.3047 30.4684 21.875 30.4684 21.7187C30.4684 21.582 30.82 20.8789 31.2692 20.1562C31.9137 19.082 32.0309 18.7304 31.9528 18.164C31.8942 17.7929 31.6598 17.3242 31.4254 17.1289C30.9762 16.7578 29.9801 16.6992 29.4528 16.9922Z" fill="#915C46"/>
<path d="M66.9528 16.9922C66.777 17.1094 66.2106 17.8711 65.6832 18.6914C64.8629 20.0195 64.7457 20.3515 64.6872 21.4844C64.5895 23.0078 64.8825 23.6914 66.0543 24.8633C66.5036 25.2929 66.7575 25.7031 66.6598 25.8398C66.5817 25.9765 66.2106 26.5625 65.8395 27.1484C64.609 29.082 65.0778 30.5664 66.8747 30.4297C67.5582 30.3711 67.7536 30.2539 68.3981 29.3945C69.57 27.8515 70.0192 26.8164 69.9997 25.5859C69.9801 24.3359 69.6481 23.6133 68.6715 22.6758C68.2809 22.3047 67.9684 21.875 67.9684 21.7187C67.9684 21.582 68.32 20.8789 68.7692 20.1562C69.4137 19.082 69.5309 18.7304 69.4528 18.164C69.3942 17.7929 69.1598 17.3242 68.9254 17.1289C68.4762 16.7578 67.4801 16.6992 66.9528 16.9922Z" fill="#915C46"/>
<path d="M49.1207 32.0508C44.4528 32.6562 38.1246 34.9023 32.734 37.9101C29.9411 39.4531 25.5465 42.3633 23.4371 44.082C20.3512 46.5429 16.8356 50.2734 14.5895 53.457C10.9762 58.5742 8.45668 65.3906 8.08559 71.1328C8.00746 72.1289 7.87074 73.0664 7.75356 73.1836C7.6559 73.3203 7.14809 73.4375 6.64027 73.4375C5.56606 73.4375 4.64809 73.9648 3.96449 74.9805C3.22231 76.0742 3.35902 77.0117 4.78481 80.9765C6.17152 84.7265 6.64027 85.625 7.67543 86.4062C8.9059 87.3437 9.72621 87.5 13.4762 87.5H16.9528L18.4957 90.1758C20.195 93.1445 20.9567 94.0429 22.3825 94.7461L23.3395 95.2148L50.6246 95.2734C77.7926 95.3125 77.9098 95.3125 78.984 94.9023C80.5465 94.3359 81.5231 93.2617 83.2809 90.1758L84.8043 87.5H87.3825C90.3317 87.5 91.0739 87.3437 92.2067 86.4648C93.4567 85.5078 93.6715 85.1172 95.1364 81.1523C96.6598 77.0117 96.7965 76.0937 96.0348 74.9805C95.1559 73.6719 94.5504 73.4375 92.0114 73.4375C89.1207 73.418 89.0817 73.3984 88.5934 70.8984C86.8356 62.0312 83.1442 56.5039 76.5621 52.8906L75.9567 52.539L76.445 51.8945C76.7184 51.5234 76.9528 51.1328 76.9528 51.0156C76.9528 50.8984 77.0309 50.7617 77.109 50.7031C77.3239 50.5859 85.7028 48.2422 85.9567 48.2422C86.0739 48.2422 86.3278 48.4375 86.5231 48.6914C86.7184 48.9453 87.3434 49.3945 87.9293 49.707C88.7692 50.1758 89.1989 50.2734 90.234 50.2734C93.0661 50.2539 95.0582 48.4179 95.2731 45.6445C95.3903 44.0039 95.0192 42.8711 93.9645 41.7773C93.0856 40.8789 93.0661 40.8398 93.3004 40.1953C93.6325 39.2969 93.6129 37.9297 93.2614 36.8945C92.5582 34.8633 90.7223 33.5937 88.4762 33.5937C86.0934 33.5937 84.3161 34.9414 83.5934 37.2461L83.2614 38.3398L78.8082 39.5703L74.3746 40.8008L73.8278 40.4101C73.1832 39.9219 71.8551 39.7265 70.9176 39.9804C70.234 40.1562 70.2145 40.1367 67.9879 37.8906C64.6286 34.5508 61.5231 32.9101 57.0504 32.1484C55.0582 31.8164 51.4059 31.7773 49.1207 32.0508ZM57.8121 35.7422C59.8629 36.25 62.2067 37.3633 63.8668 38.6328C65.4293 39.8242 66.5231 40.957 66.3278 41.1523C66.2496 41.25 65.1168 41.3086 63.8082 41.3086C61.5621 41.289 61.3082 41.25 59.3746 40.5469C54.6676 38.8672 50.0973 39.6289 46.7575 42.6562C44.3551 44.8242 43.0075 47.6758 42.8317 50.9765C42.6364 54.4922 43.7692 57.4609 46.2887 59.9609C49.9801 63.6719 55.2731 64.5117 60.1559 62.1679C61.4254 61.5625 61.9918 61.0937 64.3551 58.6914C67.3434 55.664 68.5153 54.8633 71.0543 54.1015L72.4996 53.6719L73.4176 54.6289C73.9059 55.1562 74.9801 55.9375 75.7809 56.3867C79.0621 58.2031 81.6989 61.25 83.3786 65.2344C83.7106 66.0156 83.984 66.7187 83.984 66.8164C83.984 66.914 83.3395 66.9922 82.5387 66.9922C81.3668 66.9922 80.9176 67.0898 80.0387 67.539L78.9645 68.0664L78.0465 67.5976C77.5582 67.3437 76.6793 67.0898 76.1325 67.0312C75.234 66.9531 75.0192 66.8359 74.1793 65.9765C72.8317 64.5898 71.777 64.1601 69.7262 64.1601C67.6754 64.1601 66.6207 64.5898 65.234 66.0156C64.2965 66.9726 64.2575 66.9922 63.1246 66.9922C61.8746 66.9922 60.6246 67.3437 59.8239 67.9297L59.3161 68.3008L58.652 67.5586C57.2653 66.0351 54.5504 65.2734 52.4215 65.8008C51.2692 66.0937 49.5895 67.1875 49.0231 68.0273L48.5739 68.6719L47.4801 67.5781C44.902 64.9804 41.0739 64.9414 38.5153 67.4804C37.9489 68.0469 37.4411 68.4179 37.3825 68.3398C37.07 67.8125 35.1754 67.1289 33.8082 67.0312C32.4215 66.9336 32.3629 66.914 31.6012 66.0937C30.4293 64.8242 29.0426 64.2187 27.2653 64.1992C25.9957 64.1992 25.6246 64.2773 24.5114 64.8242C23.7496 65.1953 23.0075 65.7617 22.6364 66.1914C22.109 66.8554 21.9137 66.9531 20.9762 67.0508C20.3903 67.1094 19.5309 67.3633 19.0817 67.6172L18.2614 68.0859L17.3043 67.5976C16.0739 66.9726 14.0817 66.8164 12.7926 67.2461L11.9137 67.5586L12.0309 67.0312C12.0895 66.7383 12.4801 65.4883 12.8903 64.2383C16.2887 53.9258 25.3707 44.8633 38.1832 39.0039C42.2848 37.1289 46.8746 35.7617 50.7809 35.2734C52.2848 35.0976 56.1911 35.3515 57.8121 35.7422ZM89.6676 37.4804C90.6051 38.4179 90.3121 39.5312 88.9645 40.2929C87.6168 41.0547 87.3434 42.2265 88.2809 43.164C88.5934 43.4765 88.945 43.5547 89.8434 43.5547C90.8395 43.5547 91.1129 43.6328 91.5036 44.0429C92.5387 45.0781 91.7965 46.9531 90.3707 46.9531C89.6286 46.9531 88.6715 46.2695 88.6715 45.7617C88.6715 45.2734 87.734 44.5312 87.1286 44.5312C86.7965 44.5312 84.3356 45.1367 81.6598 45.8984C78.9645 46.6406 76.7379 47.2656 76.6989 47.2656C76.5036 47.2656 75.7614 44.082 75.9176 43.9453C75.9957 43.8672 78.2614 43.1836 80.9567 42.4609C84.1403 41.582 85.9957 40.9765 86.3082 40.7031C86.7184 40.3515 86.777 40.1367 86.7575 39.1601C86.7379 38.164 86.7965 37.9883 87.3043 37.4804C88.0661 36.7187 88.9059 36.7187 89.6676 37.4804ZM58.6911 43.8476C60.527 44.4726 61.152 44.6094 63.0075 44.6875C65.4293 44.7851 66.8356 44.5898 69.902 43.75C71.0348 43.4375 71.9723 43.2031 71.9918 43.2226C72.1871 43.4179 73.7887 49.707 73.6715 49.8242C73.5934 49.8828 72.4215 50.2539 71.0543 50.6445C66.7575 51.8554 64.9215 53.0273 61.777 56.5625C60.1364 58.3984 58.9254 59.2578 57.2067 59.7851C54.1207 60.7422 50.859 59.8437 48.5348 57.4023C45.3512 54.0625 45.3317 49.2383 48.4762 45.8008C51.1129 42.9297 54.2575 42.3242 58.6911 43.8476ZM28.6129 67.9297C28.945 68.125 29.3942 68.6523 29.6286 69.1211C29.8629 69.5898 30.2145 70.1367 30.4098 70.3515C30.7614 70.7422 30.9762 70.7422 33.3004 70.4101C33.8668 70.332 34.277 70.3906 34.7653 70.664C35.5075 71.0742 36.3278 72.2851 36.3278 72.9883V73.4375H24.0231C10.2145 73.4375 11.3278 73.5742 12.109 71.9922C12.6168 70.9765 13.3004 70.4883 14.3551 70.3711C15.2926 70.2539 16.0348 70.5664 16.8746 71.4648C17.7145 72.3437 18.7106 72.3047 19.6481 71.3672C20.5661 70.4687 21.1715 70.2539 22.402 70.4101C23.6325 70.5664 24.1012 70.3515 24.5895 69.375C25.527 67.5586 26.9918 67.0312 28.6129 67.9297ZM71.3473 67.8906C71.6207 68.0859 72.07 68.6719 72.3434 69.1601C72.9293 70.2344 73.5348 70.5469 74.6871 70.3906C75.8981 70.2148 76.4645 70.4101 77.4411 71.3086C78.6715 72.4414 79.3746 72.4219 80.6637 71.2109C81.5231 70.4101 81.7184 70.3125 82.5582 70.3125C84.1207 70.3125 85.5465 71.5429 85.5465 72.8906V73.4375H72.9489C60.3903 73.4375 60.3512 73.4375 60.3512 73.0469C60.3512 72.3633 61.1129 71.0937 61.777 70.6836C62.4215 70.2734 62.6168 70.2734 65.3512 70.625C66.2301 70.7422 66.3864 70.625 67.1871 69.1601C67.8707 67.9101 68.7887 67.3242 69.9411 67.4219C70.4293 67.4804 71.0739 67.6758 71.3473 67.8906ZM44.0817 69.1601C44.8825 69.4531 45.4489 70.0781 45.82 71.0351C46.0934 71.7383 46.1129 72.0117 45.9176 72.6562L45.6832 73.4375H40.2731L40.0387 72.7344C39.7457 71.8945 39.9996 70.8789 40.6637 70.0195C41.4059 69.0625 42.8707 68.6914 44.0817 69.1601ZM55.5075 69.375C56.7965 70.0976 57.3825 71.6015 56.9332 73.0078C56.8161 73.418 56.6989 73.4375 54.0817 73.4375H51.3668L51.152 72.8906C50.8786 72.1875 51.0543 70.957 51.5231 70.332C52.5387 68.9453 54.0817 68.5742 55.5075 69.375ZM93.1637 76.6601C93.1637 76.8554 91.0348 82.6172 90.7614 83.1445C90.1168 84.3554 93.0075 84.2773 50.4098 84.3359C22.8512 84.3554 11.2496 84.3164 10.6832 84.1601C10.2536 84.0429 9.72621 83.75 9.51137 83.5156C9.2184 83.1836 7.6559 79.2383 6.91371 76.8945C6.81606 76.582 8.94496 76.5625 49.9801 76.5625C73.7301 76.5625 93.1637 76.6015 93.1637 76.6601ZM80.2731 88.6133C79.1793 90.5469 78.6325 91.2695 77.9293 91.6797C77.2457 92.0898 77.1286 92.0898 50.8786 92.0898C24.6286 92.0898 24.5114 92.0898 23.8278 91.6797C23.1246 91.2695 22.6168 90.6054 21.5036 88.6133L20.8786 87.5H80.8981L80.2731 88.6133Z" fill="#915C46"/>
</svg>
