<svg width="100" height="100" viewBox="0 0 100 100" fill="none" xmlns="http://www.w3.org/2000/svg">
<path d="M41.66 2.73428C40.9178 3.04678 40.8202 3.53506 40.8202 7.30459V10.9374H37.6366C33.6717 10.9374 33.6913 10.9179 33.828 13.2616C34.0428 17.0116 36.8749 19.9608 40.8202 20.5468L42.1874 20.7421V23.2812C42.1874 27.4413 42.6756 30.7616 44.121 36.2304C44.4139 37.4022 44.7264 38.8085 44.785 39.3554L44.8827 40.3319H41.9335C39.4335 40.3319 38.7303 40.4101 37.4413 40.7812C34.453 41.6405 31.5624 43.496 29.6874 45.7616C28.4374 47.2655 26.8944 50.4296 26.4842 52.2851C26.1131 54.0038 26.0936 57.2655 26.4452 58.9647L26.6991 60.2147L26.1131 61.1913C25.371 62.3632 25.1756 64.1405 25.6249 65.4687C25.8006 65.9374 27.0311 68.0468 28.3788 70.1952L30.8397 74.0624L29.7655 75.4687C27.5389 78.3397 26.3671 81.6991 26.3671 85.1562C26.3671 89.9999 28.7499 93.9452 32.9686 96.0741C35.5858 97.3827 35.2342 97.3632 49.6092 97.3632C64.1405 97.3632 63.6913 97.4022 66.5038 95.9374C69.1405 94.5507 71.0546 92.3046 72.1874 89.2577C72.6756 87.9491 72.7342 87.539 72.7342 85.2538C72.7538 82.2069 72.3436 80.5468 70.9374 77.8515C69.4139 74.9413 67.3631 72.9882 63.3983 70.6835C62.0702 69.9022 60.4686 68.2421 59.7655 66.953L59.2967 66.0351L59.7069 65.5858C61.3671 63.7694 61.0936 60.5272 59.1796 59.2577C58.4764 58.789 58.4569 58.7304 58.3397 57.3241C58.2616 56.5038 58.1053 55.4296 57.9881 54.9218C57.6561 53.5741 56.4256 51.0351 55.5077 49.8046C54.6874 48.7499 54.6874 48.7304 54.6874 47.0702V45.3905L56.3085 45.6444C57.1874 45.7812 59.1405 45.8983 60.6444 45.8983C63.7108 45.9179 65.41 45.6444 67.0702 44.8046C69.785 43.4569 71.7772 40.078 72.1678 36.1913C72.285 34.8827 72.3436 34.746 72.9686 34.2772C74.2967 33.2616 74.4725 32.6171 74.5702 28.1835C74.6483 24.3944 74.6483 24.2187 74.2186 23.3202C73.9061 22.6952 73.496 22.246 72.9296 21.8944C72.2069 21.4648 72.0897 21.289 72.0702 20.7421C72.0506 18.9257 69.5506 18.8476 69.2186 20.664C69.121 21.1718 68.828 21.6015 68.2421 22.1288C67.0311 23.1835 66.8358 23.9257 66.6991 27.9491C66.5428 32.0898 66.6796 32.7538 67.8514 33.8866C68.2811 34.3163 68.828 34.7655 69.0233 34.8827C69.3749 35.078 69.3944 35.1757 69.1796 36.4843C68.9061 38.0663 68.3006 39.5507 67.4217 40.7616C65.7811 42.9687 61.7381 43.5937 55.5663 42.578C54.9217 42.4804 54.3553 42.3827 54.3163 42.3827C54.2772 42.3827 54.2967 41.4452 54.3553 40.2733C54.453 38.7304 54.6874 37.4218 55.2733 35.2538C56.3866 31.0937 56.8358 28.203 56.9725 24.1796L57.0897 20.7421L58.4178 20.5468C60.8006 20.1952 62.7538 18.9843 64.0624 17.0897C65.2538 15.3515 65.8202 12.3632 65.1171 11.3671C64.8241 10.9569 64.7069 10.9374 61.621 10.9374H58.4178L58.3592 7.12881C58.3006 3.78896 58.2616 3.28115 57.9491 2.98818C57.6366 2.65615 56.9921 2.63662 49.8436 2.59756C45.5858 2.57803 41.8944 2.63662 41.66 2.73428ZM55.4686 8.10537V10.7421H49.6092H43.7499V8.10537V5.46865H49.6092H55.4686V8.10537ZM62.3046 14.0233C62.3046 15.1562 60.2538 17.1288 58.5936 17.578C58.203 17.6952 54.4335 17.7733 49.5897 17.7733C40.3124 17.7733 39.9608 17.7343 38.5155 16.4843C37.7147 15.8202 37.3241 15.2343 36.9139 14.1601L36.7186 13.6718H49.5116C61.7186 13.6718 62.3046 13.6913 62.3046 14.0233ZM54.1014 23.0468C54.1014 26.9335 53.496 30.9374 52.3436 34.8632C51.8749 36.4647 51.3671 39.5507 51.3671 40.8788V41.8163L50.6639 41.6796C50.2733 41.6015 49.5116 41.4452 48.9452 41.328C47.8124 41.0741 47.91 41.2694 47.4803 37.9882C47.3827 37.1288 47.0506 35.6249 46.7772 34.6679C45.6053 30.664 45.1171 27.3632 45.1171 23.3983V20.703H49.6092H54.1014V23.0468ZM71.2499 24.3358C71.66 24.6288 71.6796 24.746 71.6796 27.8319C71.6796 31.1523 71.5428 31.9335 70.8788 32.1288C70.371 32.3046 69.746 31.914 69.6092 31.328C69.5311 31.0546 69.5311 29.453 69.6092 27.7733C69.7264 25.0194 69.785 24.6679 70.1561 24.3554C70.6444 23.9452 70.703 23.9452 71.2499 24.3358ZM43.7889 43.2812L44.6678 43.3983L44.5702 46.0741L44.4921 48.7304L43.7694 49.7069C42.0116 52.0507 41.0741 54.5116 40.8788 57.0897C40.7616 58.6718 40.7616 58.6913 40.0194 59.2187C38.1444 60.5468 37.7928 63.3983 39.2772 65.2733L39.8631 66.0155L39.453 66.7968C39.2381 67.2265 39.0233 67.578 38.9842 67.578C38.9452 67.578 37.8905 65.9569 36.621 63.9647C33.7694 59.4335 33.0077 58.8085 30.4296 58.789C29.8046 58.789 29.2967 58.7304 29.2967 58.6327C29.2772 58.5546 29.1991 57.8515 29.121 57.0702C28.6717 53.1835 30.1366 49.2968 33.0858 46.5233C34.4725 45.2343 36.9139 43.8866 38.6131 43.4765C39.8241 43.1835 42.3436 43.0858 43.7889 43.2812ZM49.9999 44.4921L51.66 44.8437L51.7186 46.3476L51.7772 47.8515H49.5116H47.2264L47.3631 46.328C47.5194 44.414 47.6171 44.1405 48.0077 44.1405C48.1835 44.1601 49.0819 44.3163 49.9999 44.4921ZM53.1249 51.5038C54.3358 52.9882 55.4491 55.996 55.4686 57.8515V58.3983H49.6092H43.7499V57.6562C43.7694 55.8007 44.8631 52.8905 46.1131 51.4647L46.7186 50.7812H49.6092H52.5194L53.1249 51.5038ZM57.5975 61.8358C58.1249 62.4999 58.1053 62.7538 57.5389 63.4179L57.0702 63.9647L50.1561 64.0233C46.3671 64.0624 42.9686 64.0233 42.6171 63.9647C41.3085 63.7304 40.8202 62.6366 41.6405 61.7772L42.0506 61.328H49.6288H57.2069L57.5975 61.8358ZM31.9921 62.4413C32.3631 62.8515 33.6131 64.6874 34.7655 66.5429C36.6991 69.6093 36.8553 69.9218 36.5624 70.1757C36.035 70.6249 33.3592 72.0897 33.1639 72.0312C33.0663 71.9921 31.9335 70.3124 30.6639 68.2616C27.9491 63.9843 27.8319 63.5351 28.9842 62.3827C29.5311 61.8358 29.785 61.7187 30.4881 61.7187C31.1913 61.7187 31.4061 61.8163 31.9921 62.4413ZM57.285 68.3788C58.3006 70.4882 60.0194 72.1874 62.578 73.6327C64.9413 74.9608 66.4842 76.328 67.7538 78.2421C69.4921 80.8202 70.2928 84.4726 69.7264 87.1679C69.1991 89.7265 67.4608 92.0507 65.1171 93.3007C62.7928 94.5507 62.6366 94.5507 48.9647 94.4921C36.6991 94.4335 36.621 94.4335 35.4491 93.9843C33.0077 93.0663 31.2303 91.4647 30.1561 89.1796C28.7303 86.1913 28.9647 82.8124 30.8202 79.1991C31.8553 77.1874 34.3163 74.8046 36.6405 73.5741C39.2577 72.1679 41.6796 69.6093 42.3827 67.4608L42.6171 66.7968L49.5702 66.8163H56.5428L57.285 68.3788Z" fill="#915C46"/>
</svg>
