<svg width="24" height="24" viewBox="0 0 24 24" fill="none" xmlns="http://www.w3.org/2000/svg">
<g clip-path="url(#clip0_3107_764)">
<path d="M8.7341 5.59857C8.4466 5.74232 8.12316 6.07924 8.14562 6.21849C8.15461 6.29935 8.22199 6.33529 8.47804 6.42064C9.03957 6.59584 9.34054 6.9642 9.43937 7.57513C9.57863 8.44213 9.56964 10.248 9.4214 10.9533C9.19679 12.0449 8.64425 12.0538 7.82218 10.9667C7.07648 9.98295 6.19152 8.40619 5.55363 6.93724C5.30656 6.36674 5.15382 6.1556 4.88879 6.01635C4.7091 5.9265 4.64621 5.92201 2.85382 5.9265C0.895231 5.9265 0.778435 5.93549 0.589763 6.13763C0.504411 6.23197 0.490935 6.28138 0.508903 6.50599C0.526872 6.72162 0.6257 6.96869 1.07941 7.93451C2.09465 10.0908 3.04699 11.8247 4.0173 13.2802C5.60754 15.6611 6.88332 16.9144 8.51847 17.705C9.7673 18.307 10.9128 18.5361 12.521 18.5091C13.2532 18.4912 13.3431 18.4822 13.5362 18.3878C13.8372 18.2396 13.9181 18.0464 13.9765 17.3591C14.0349 16.7033 14.1112 16.3843 14.3044 15.998C14.5335 15.5353 14.8659 15.3915 15.2702 15.5802C15.4499 15.6611 16.0339 16.2316 16.9818 17.2468C17.6196 17.9341 17.9566 18.1947 18.4237 18.3788L18.7157 18.4912L20.8136 18.5046C23.1405 18.5181 23.1181 18.5226 23.3427 18.2261C23.4954 18.024 23.5403 17.6376 23.4415 17.3546C23.2349 16.7662 22.57 15.9531 21.137 14.538C19.8208 13.2398 19.7355 13.1275 19.7894 12.7052C19.8253 12.3997 19.9376 12.2245 21.1325 10.6163C21.6985 9.85717 22.314 9.00365 22.5071 8.72064C23.1585 7.75931 23.4999 7.00463 23.4999 6.53744C23.4999 6.32181 23.4819 6.26791 23.3741 6.1601C23.136 5.9265 23.0327 5.91302 20.7148 5.91302C18.7068 5.91302 18.572 5.91752 18.4103 5.99838C18.1902 6.10619 18.0734 6.28588 17.8173 6.92377C17.1569 8.54095 16.2136 10.1626 15.3691 11.1329C14.7716 11.8203 14.556 11.9011 14.246 11.5642C13.936 11.2363 13.9316 11.1869 13.9316 8.70267C13.9316 6.33978 13.9091 6.08822 13.698 5.79174C13.6486 5.71537 13.5228 5.61654 13.4194 5.57162C13.2487 5.49525 13.087 5.48627 11.097 5.48627H8.9632L8.7341 5.59857Z" fill="white" fill-opacity="0.7"/>
</g>
<defs>
<clipPath id="clip0_3107_764">
<rect width="23" height="23" fill="white" transform="translate(0.5 0.5)"/>
</clipPath>
</defs>
</svg>
