<svg width="141" height="140" viewBox="0 0 141 140" fill="none" xmlns="http://www.w3.org/2000/svg">
<path d="M69.6806 2.67968C69.1884 3.08984 68.997 3.60937 68.8329 5.03125C68.5595 7.27344 67.5478 9.24219 65.9071 10.6914C64.5126 11.8945 62.2157 12.8516 60.6298 12.8516C58.579 12.8516 57.4853 14.9023 58.7431 16.4609C59.1532 17.0078 59.6181 17.1992 60.9032 17.3359C61.8329 17.4453 63.2274 17.8555 64.1845 18.3477C66.8915 19.7148 68.3681 21.8477 68.8056 25.1289C69.1063 27.1797 69.6806 27.8906 71.0478 27.8906C72.5517 27.8906 72.9618 27.4258 73.3993 25.1836C73.8915 22.5586 74.6298 21.082 76.1337 19.6875C77.5282 18.4023 78.5673 17.9102 80.6728 17.4727C81.4657 17.3359 82.3954 17.1445 82.7235 17.0625C83.5165 16.8984 84.2274 15.5312 84.0087 14.6562C83.7353 13.5898 82.9149 13.043 81.1103 12.7969C76.8173 12.2227 73.8915 9.1875 73.372 4.83984C73.2079 3.60937 73.0165 3.14453 72.4696 2.73437C71.622 2.05078 70.4735 2.02343 69.6806 2.67968ZM72.8251 16.5977C72.0048 17.3906 71.3212 18.1836 71.3212 18.3203C71.3212 18.457 70.5556 17.8008 69.6259 16.8711L67.9032 15.1758L69.5165 13.5352L71.1571 11.8945L72.7157 13.5078L74.3017 15.1211L72.8251 16.5977Z" fill="#915C46"/>
<path d="M128.66 6.34371C128.059 6.80855 127.648 8.01167 127.648 9.32417V10.3906H126.145C124.258 10.3906 123.547 10.9921 123.547 12.5507C123.547 14 124.477 14.7656 126.281 14.7656H127.566L127.73 16.3242C127.867 17.582 128.059 18.0468 128.605 18.5117C129.59 19.3593 130.547 19.3046 131.504 18.3476C132.16 17.664 132.297 17.3359 132.297 16.1601V14.7656H133.637C135.469 14.7656 136.508 13.9179 136.508 12.4414C136.508 11.0195 135.688 10.3906 133.801 10.3906H132.352L132.242 8.72261C132.133 7.38277 131.996 6.91792 131.504 6.53511C130.766 5.93355 129.316 5.85152 128.66 6.34371Z" fill="#915C46"/>
<path d="M12.2856 13.0155C11.8755 13.5624 11.7114 14.1366 11.7114 15.203V16.6796H10.0981C8.67627 16.6796 8.40283 16.7616 7.91064 17.3905C7.25439 18.2108 7.1997 18.8124 7.6372 19.7694C8.02002 20.6444 8.97705 21.0546 10.481 21.0546H11.7114V22.5038C11.7114 24.7733 13.188 25.9491 14.938 25.0468C15.9224 24.5546 16.0864 24.1444 16.0864 22.4218V21.1093L17.7544 20.9999C19.6958 20.8632 20.4614 20.2343 20.4614 18.7577C20.4614 17.3085 19.6411 16.6796 17.727 16.6796H16.0864V15.039C16.0864 13.0155 15.5395 12.3046 13.9263 12.3046C13.0786 12.3046 12.7231 12.4686 12.2856 13.0155Z" fill="#915C46"/>
<path d="M105.91 15.3125C105.609 15.6406 105.309 16.5703 105.172 17.582C104.57 21.957 101.727 24.7734 97.2695 25.4023C95.3555 25.6484 94.5625 26.3047 94.5625 27.6172C94.5625 28.9844 95.4375 29.6953 97.3516 29.9141C101.617 30.3516 104.57 33.3047 105.172 37.707C105.473 39.7578 106.047 40.4688 107.414 40.4688C108.973 40.4688 109.355 40.0039 109.766 37.625C110.34 34.2891 111.98 31.9922 114.688 30.7344C115.453 30.3789 116.684 29.9961 117.422 29.9141C118.16 29.832 119.035 29.6406 119.363 29.4766C120.184 29.0664 120.594 27.8359 120.238 26.8242C119.91 25.9219 119.172 25.5664 117.121 25.293C113.266 24.7734 110.176 21.4922 109.711 17.4453C109.602 16.4883 109.328 15.668 109 15.3398C108.316 14.5742 106.594 14.5742 105.91 15.3125ZM109 25.9766L110.641 27.6172L109.055 29.2305L107.441 30.8437L105.828 29.2305L104.242 27.6445L105.691 26.2227C106.484 25.4297 107.141 24.6914 107.141 24.5547C107.141 24.1445 107.332 24.3086 109 25.9766Z" fill="#915C46"/>
<path d="M36.1841 25.4023C35.4458 25.8672 30.4692 29.0391 25.1372 32.457L15.4848 38.6914L8.78562 49.082C5.09422 54.7969 1.92234 59.8281 1.73094 60.293C1.4575 60.9492 1.53953 63.0547 2.22312 71.6406C3.04344 82.6328 3.15281 83.1523 4.41062 83.6719C5.01219 83.918 62.4341 89.6875 64.2387 89.6875C65.8247 89.6875 66.5083 88.9492 66.4536 87.3359C66.4262 85.5859 60.6841 28.5469 60.4926 27.6992C60.1645 26.4414 59.6176 26.332 49.7192 25.5938C44.5239 25.2109 39.6841 24.8281 38.9184 24.7461C37.7426 24.6094 37.3598 24.7188 36.1841 25.4023ZM51.3872 30.1875L54.8051 30.4883L52.7817 34.3164C51.6606 36.4219 50.0747 39.4297 49.2544 40.9883L47.7231 43.832L47.1216 42.3555C46.7934 41.5352 45.3989 38.3086 44.0044 35.1641L41.5434 29.4492L44.7426 29.668C46.4926 29.7773 49.5005 29.9961 51.3872 30.1875ZM40.6958 38.8281C42.3911 42.7656 43.7036 46.0195 43.6216 46.1016C43.4848 46.2656 28.1997 44.3242 27.4887 44.0508C27.0512 43.8867 27.352 43.3945 29.6489 40.6055C35.7192 33.168 37.1958 31.4453 37.3872 31.582C37.5239 31.6367 39.0005 34.918 40.6958 38.8281ZM60.5473 72.9531C60.4926 72.9805 59.7544 71.3945 58.9067 69.3984C58.0317 67.4023 56.7739 64.5312 56.1176 63.0273C55.4614 61.5234 53.8481 57.7773 52.5083 54.6875L50.0747 49.082L50.6762 47.9883C51.0044 47.3867 52.1801 45.1719 53.2739 43.0664C55.1606 39.4297 56.4184 37.1055 56.7739 36.5039C56.8833 36.3398 57.7856 44.4609 58.77 54.5508C59.7817 64.6133 60.5747 72.8984 60.5473 72.9531ZM26.0122 37.9258C25.4106 38.6641 24.0434 40.3047 22.977 41.6172C21.8559 42.9844 19.6137 45.1719 17.7817 46.6484C16.0317 48.125 14.2817 49.5469 13.9262 49.875C13.27 50.4492 13.5981 49.9023 17.2348 44.2695C18.7114 41.9727 18.7934 41.8906 22.813 39.3203C25.0552 37.8438 26.9419 36.668 26.9692 36.668C27.0239 36.6406 26.5864 37.2148 26.0122 37.9258ZM34.0786 49.4922C38.6723 50.1211 42.4731 50.6406 42.5278 50.668C42.5551 50.7227 39.1372 54.1953 34.9536 58.3789C30.7427 62.5898 27.2973 65.8438 27.2973 65.5977C27.2973 65.3789 26.8052 61.4414 26.2036 56.875C25.602 52.3086 25.1098 48.5352 25.1098 48.4805C25.1098 48.3438 25.5747 48.3711 34.0786 49.4922ZM21.9653 58.7344C22.5395 63.1367 22.9223 66.8008 22.8677 66.8828C22.7856 66.9648 19.395 65.5703 15.3481 63.8203L7.93797 60.6211L8.67625 60.0195C15.2661 54.5234 20.5981 50.3398 20.7348 50.5039C20.8442 50.6133 21.3911 54.332 21.9653 58.7344ZM53.4106 68.0586C56.9653 76.2344 59.8091 82.9609 59.7817 83.0156C59.727 83.043 52.9731 80.1719 44.7426 76.5898L29.7856 70.1094L38.3169 61.5781C42.9926 56.9023 46.8481 53.1016 46.9028 53.1289C46.9301 53.1836 49.8559 59.8828 53.4106 68.0586ZM12.8052 67.6211C15.7309 68.8789 18.6841 70.1641 19.3677 70.4648L20.5981 70.9844L17.727 72.5156C16.1411 73.3633 13.2153 74.9219 11.1919 75.9883C9.16844 77.0547 7.41844 77.9297 7.3364 77.9297C7.22703 77.9297 7.00828 75.7969 6.81687 73.1992C6.65281 70.6289 6.40672 67.6484 6.32469 66.6367L6.16062 64.7773L6.81687 65.0508C7.17234 65.1875 9.87937 66.3359 12.8052 67.6211ZM38.1528 78.6406C44.6606 81.457 49.9653 83.8086 49.9106 83.8359C49.7192 84 13.5981 80.2266 13.5981 80.0078C13.5981 79.707 25.7114 73.2812 26.0669 73.418C26.2309 73.4453 31.6723 75.7969 38.1528 78.6406Z" fill="#915C46"/>
<path d="M82.4766 34.0155C81.8477 34.4803 81.4376 35.6288 81.4376 36.9413V38.0077H80.0431C78.3477 38.0077 77.7462 38.3085 77.3634 39.3749C77.0352 40.3319 77.172 40.9061 77.9649 41.7538C78.4024 42.246 78.8126 42.3827 79.961 42.3827H81.3829L81.4923 43.9413C81.6016 45.1991 81.7657 45.6093 82.3673 46.1288C84.172 47.66 86.086 46.2928 86.086 43.4491V42.3827H87.4259C89.2579 42.3827 90.1876 41.6444 90.1876 40.1678C90.1876 38.6093 89.4766 38.0077 87.5899 38.0077H86.086V36.7772C86.086 35.3827 85.5391 34.0702 84.8556 33.7968C84.1173 33.5233 82.9688 33.6327 82.4766 34.0155Z" fill="#915C46"/>
<path d="M125.816 37.4609C124.969 37.7891 124.641 38.582 124.641 40.168V41.5625H123.137C121.223 41.5625 120.266 42.3555 120.266 43.8867C120.266 45.3633 121.004 45.9375 123 45.9375H124.641V47.5781C124.641 49.5742 125.215 50.3125 126.691 50.3125C128.223 50.3125 129.016 49.3555 129.016 47.4414V45.9375H130.602C132.406 45.9375 132.98 45.5273 133.281 44.0781C133.418 43.3672 133.309 43.0938 132.625 42.3828C131.914 41.6992 131.586 41.5625 130.41 41.5625H129.016V40.168C129.016 38.9922 128.879 38.6641 128.223 37.9805C127.402 37.1602 126.855 37.0508 125.816 37.4609Z" fill="#915C46"/>
<path d="M90.7622 52.746L81.6567 53.4843L81.0005 54.2225C80.645 54.66 80.3442 55.1522 80.3442 55.371C80.3442 55.5897 79.0591 68.66 77.4458 84.41C75.8599 100.16 74.5474 113.641 74.5474 114.351C74.52 115.719 74.8755 116.402 75.8872 116.785C76.4341 116.976 134.813 111.316 136.618 110.879C136.973 110.797 137.411 110.359 137.629 109.84C138.122 108.746 139.708 88.4843 139.379 87.5819C139.27 87.2538 136.098 82.2225 132.325 76.371L125.489 65.7616L114.715 58.8436L103.915 51.953L101.918 51.9804C100.797 52.0077 95.7934 52.3358 90.7622 52.746ZM98.8559 58.0233C98.5005 58.8163 97.1333 62.0155 95.7661 65.1327C94.4263 68.2499 93.2505 70.6835 93.1138 70.5741C92.6489 70.1366 86.3599 57.8866 86.4966 57.7225C86.6606 57.5858 95.8755 56.7382 98.4458 56.6288L99.4849 56.6015L98.8559 58.0233ZM109.165 65.078C111.817 68.3046 113.977 71.039 113.977 71.121C113.977 71.203 112.282 71.4765 110.231 71.7499C108.153 71.996 104.352 72.4882 101.782 72.8436L97.0786 73.4452L97.9809 71.3944C98.4731 70.246 99.7036 67.4022 100.715 65.078C101.727 62.7538 102.793 60.2929 103.094 59.6366C103.532 58.5975 103.668 58.4882 103.997 58.8163C104.188 59.035 106.512 61.8515 109.165 65.078ZM87.563 69.8905C89.313 73.1991 90.7349 76.0975 90.7349 76.3163C90.7349 76.6991 80.5356 100.351 80.4263 100.242C80.3989 100.215 81.1919 91.9296 82.2036 81.8124C83.2153 71.7225 84.1177 63.5468 84.227 63.6561C84.3091 63.7655 85.813 66.5546 87.563 69.8905ZM124.997 73.3085C126.473 75.6054 127.54 77.3554 127.321 77.1913C123.028 73.828 119.774 70.8749 117.833 68.5233C113.458 63.2186 113.458 63.41 118.106 66.4179L122.29 69.0975L124.997 73.3085ZM115.809 76.3436C115.727 76.8358 115.18 80.8554 114.606 85.285L113.594 93.3241L105.993 85.5585L98.4184 77.7929L99.977 77.5741C109.383 76.3163 115.262 75.5233 115.59 75.496C115.864 75.4686 115.918 75.7147 115.809 76.3436ZM126.555 82.4413C133.883 88.3749 133.309 87.5819 131.04 88.621C130 89.0858 126.665 90.5624 123.629 91.8749C119.282 93.7616 118.079 94.1718 118.079 93.8163C118.079 93.16 120.02 78.121 120.157 77.6835C120.266 77.3554 120.348 77.3827 120.758 77.7108C121.004 77.9296 123.629 80.0624 126.555 82.4413ZM111.161 97.2343C111.079 97.3163 89.2309 106.859 84.1724 109.019C82.6138 109.676 81.2466 110.277 81.1372 110.332C81.0552 110.414 83.9263 103.633 87.563 95.2929L94.1528 80.1171L102.684 88.6483C107.387 93.3515 111.188 97.2069 111.161 97.2343ZM134.321 98.5468C134.047 102.101 133.747 105 133.61 105C133.254 105 120.813 98.3827 120.813 98.1913C120.813 97.9999 134.54 91.9296 134.704 92.039C134.758 92.0663 134.594 95.0194 134.321 98.5468ZM121.797 103.961C126.801 106.613 128.004 107.351 127.43 107.406C120.786 108.144 91.4458 110.988 91.3638 110.933C91.3091 110.879 93.2231 109.976 95.5747 108.965C97.9536 107.926 103.231 105.629 107.278 103.879C111.352 102.101 114.825 100.652 115.016 100.625C115.235 100.625 118.27 102.129 121.797 103.961Z" fill="#915C46"/>
<path d="M40.5039 96.1133C39.5742 96.4961 39.4922 96.7148 39.1914 99.1211C38.6719 102.949 35.418 106.012 31.3438 106.504C29.457 106.75 28.6641 107.379 28.6641 108.664C28.6641 110.168 29.4023 110.797 31.4805 111.043C35.7461 111.563 38.6992 114.543 39.2734 118.918C39.5469 120.914 40.2031 121.68 41.5703 121.68C42.6094 121.68 43.7031 120.586 43.7031 119.547C43.7031 119.082 43.9492 117.906 44.25 116.922C45.2617 113.668 48.707 111.016 51.8789 111.016C53.4102 111.016 54.3672 110.168 54.3672 108.801C54.3672 107.324 53.7109 106.75 51.7422 106.504C47.5039 106.012 44.4141 103.004 43.8398 98.8477C43.5664 96.7969 43.457 96.5508 42.6094 96.1133C41.6523 95.6211 41.625 95.6211 40.5039 96.1133ZM43.1016 107.16L44.7695 108.773L43.1016 110.441L41.4336 112.082L40.8867 111.398C40.5859 111.016 39.875 110.277 39.3281 109.758L38.2891 108.801L39.8477 107.215C40.6953 106.34 41.4062 105.602 41.4062 105.574C41.4336 105.574 42.1992 106.285 43.1016 107.16Z" fill="#915C46"/>
<path d="M113.129 121.215C112.445 121.734 112.063 122.664 112.063 123.84V124.961H110.969C109.41 124.961 108.317 125.59 108.098 126.602C107.688 128.434 108.918 129.609 111.133 129.609C112.035 129.609 112.063 129.637 112.063 130.703C112.063 132.098 112.5 133.027 113.348 133.41C114.332 133.875 114.961 133.766 115.781 133.082C116.328 132.59 116.547 132.125 116.629 131.059L116.766 129.664L118.16 129.527C120.621 129.309 121.578 127.34 120.02 125.754C119.363 125.125 118.981 124.961 117.996 124.961H116.793L116.629 123.512C116.492 122.445 116.274 121.926 115.754 121.461C114.988 120.805 113.813 120.695 113.129 121.215Z" fill="#915C46"/>
<path d="M17.4805 125.262C16.4688 125.672 16.1133 126.328 16.0859 127.887V129.336H14.582C12.75 129.336 11.9844 129.938 11.9844 131.387C11.9844 132.891 12.9688 133.711 14.7188 133.711H16.0859V135.078C16.0859 136.773 16.9336 137.812 18.2734 137.812C19.6133 137.812 20.4609 136.773 20.4609 135.078V133.711H21.8281C23.5781 133.711 24.5625 132.891 24.5625 131.387C24.5625 129.938 23.7969 129.336 21.9648 129.336H20.4609V127.832C20.4609 126.684 20.3242 126.191 19.9141 125.781C19.6133 125.48 19.2578 125.234 19.1211 125.234C18.9844 125.234 18.7109 125.18 18.4922 125.125C18.3008 125.043 17.8359 125.125 17.4805 125.262Z" fill="#915C46"/>
<path d="M69.543 125.289C68.5859 125.809 68.3125 126.383 68.3125 127.887V129.336H66.8086C64.9219 129.336 64.2109 129.938 64.2109 131.496C64.2109 132.973 65.1406 133.711 66.9727 133.711H68.3125V135.078C68.3125 136.773 69.1602 137.812 70.5 137.812C71.8398 137.812 72.6875 136.773 72.6875 135.078V133.711H74.0273C75.8594 133.711 76.7891 132.973 76.7891 131.496C76.7891 129.938 76.0781 129.336 74.1914 129.336H72.6875V127.996C72.6875 126.246 72.5234 125.836 71.5664 125.371C70.6641 124.879 70.2812 124.879 69.543 125.289Z" fill="#915C46"/>
</svg>
