<svg width="100" height="100" viewBox="0 0 100 100" fill="none" xmlns="http://www.w3.org/2000/svg">
<path d="M40.7422 20.918C38.3008 21.4844 35.332 23.6719 34.0234 25.8203C32.4023 28.5352 31.8945 32.2852 32.7344 35.293C32.8516 35.7227 32.8125 35.7422 31.3281 35.7422C30.4688 35.7422 27.8906 35.8398 25.5664 35.957C16.0156 36.4648 11.0156 34.9805 5.70312 30.0195C4.17969 28.5742 4.08203 28.5156 3.16406 28.5156C2.42188 28.5156 2.12891 28.6133 1.77734 28.9844C1.21094 29.5898 1.07422 30.1367 0.546875 34.082C0.175781 36.9531 0.117188 38.2812 0.0976562 43.9453C0.0976562 51.1133 0.253906 52.832 1.36719 57.1289C2.07031 59.8438 2.71484 61.5039 3.94531 63.9453C7.1875 70.2148 12.4805 74.3359 19.3945 75.918C21.2695 76.3477 26.8945 76.3477 31.3672 75.918C35.4688 75.5078 37.6172 75.5078 40.0391 75.8594C42.5977 76.25 44.8438 76.9922 47.2461 78.2422C49.8438 79.5898 50.1758 79.5898 52.5586 78.3398C56.0156 76.5039 59.7656 75.5859 63.6719 75.5859C64.6875 75.5859 67.5586 75.7617 70.0195 75.9766C75.2148 76.4258 76.582 76.4453 79.0039 76.1523C86.2891 75.2539 92.5391 70.7812 96.0547 63.9258C97.7539 60.6055 98.7891 57.2852 99.5312 52.832C99.9609 50.1953 100.117 41.6797 99.8242 38.0078C99.5508 34.9023 98.9062 29.9805 98.7109 29.6289C98.2422 28.8086 97.7539 28.5156 96.8359 28.5156C95.918 28.5156 95.8203 28.5742 94.2969 30.0195C88.9844 34.9805 83.9062 36.4844 74.3555 35.957C72.0703 35.8398 69.5312 35.7422 68.6719 35.7422C67.1875 35.7422 67.1484 35.7227 67.2656 35.293C67.5977 34.082 67.7539 31.9336 67.5781 30.5859C67.2266 27.7344 66.2695 25.8008 64.2773 23.8281C62.0898 21.6602 59.7266 20.7031 56.543 20.7031C54.4531 20.7031 53.125 21.0352 51.3086 21.9531L49.9805 22.6367L48.7695 21.9727C48.1055 21.6211 47.0117 21.1719 46.3672 21.0156C45.0391 20.6836 41.9922 20.625 40.7422 20.918ZM45.7031 25.1172C46.1914 25.2734 47.0312 25.7422 47.5586 26.1719C49.5703 27.7734 50.332 27.832 51.8945 26.543C53.1055 25.5469 54.1992 25.0195 55.5078 24.8047C58.5352 24.3164 61.9727 26.3477 63.125 29.2969C64.5703 33.0859 62.3242 38.4961 57.1484 43.6719C55.1953 45.625 52.8711 47.4414 51.1133 48.3398L50 48.9258L48.8867 48.3398C46.0938 46.8945 42.168 43.3594 39.9219 40.332C36.0156 35.0195 35.3906 30.4102 38.1641 27.2461C40.0781 25.0391 42.9102 24.2383 45.7031 25.1172ZM6.36719 35.8789C8.00781 37.0312 11.2891 38.5742 13.3203 39.1406C16.7188 40.1172 19.6289 40.2539 29.0039 39.9609L34.4727 39.7852L35.3711 41.1328C38.418 45.7031 43.0078 49.9609 47.2461 52.1094C49.5312 53.2617 50.293 53.3008 52.2461 52.3828C56.4062 50.4102 61.3477 45.9766 64.3945 41.4648L65.5273 39.7852L70.6055 39.9609C80.5664 40.3125 83.8086 40.0977 87.5391 38.8672C89.6094 38.1641 92.2461 36.8555 93.9453 35.6641C94.8047 35.0586 95.2539 34.8633 95.332 35.0195C95.4102 35.1562 95.5664 36.5625 95.7031 38.1836C96.0547 42.4023 95.8789 49.7852 95.3516 52.7539C94.1406 59.5117 92.0508 63.8672 88.3789 67.3438C84.043 71.4453 78.3008 72.9297 70.7422 71.9336C67.207 71.4844 60.6445 71.4648 58.3398 71.9336C56.1133 72.3828 53.4961 73.2422 51.582 74.1602L50.0391 74.9023L48.418 74.1406C46.3281 73.1836 43.8477 72.3828 41.6602 71.9336C39.2773 71.4648 32.9883 71.4648 29.1016 71.9531C21.1914 72.9492 15.3125 71.2695 11.0156 66.7773C5.44922 60.918 3.08594 50.6836 4.31641 37.5977C4.43359 36.4062 4.57031 35.293 4.60938 35.0977C4.72656 34.7266 4.6875 34.707 6.36719 35.8789Z" fill="#915C46"/>
<path d="M25.0972 49.1407C23.1636 49.6095 20.8004 50.8985 19.3746 52.2657C18.1246 53.4571 18.105 53.4962 18.2027 54.336C18.359 55.6446 19.4136 57.9688 20.566 59.4728C23.2222 62.9493 27.0894 64.8438 31.5425 64.8438C35.0582 64.8438 38.3785 63.6134 40.7222 61.4454L41.855 60.3907L41.7574 59.2384C41.6988 58.379 41.4644 57.6368 40.8199 56.3282C40.1168 54.9024 39.648 54.2774 38.1832 52.8321C35.3121 49.9415 32.5582 48.8282 28.4175 48.8478C27.2457 48.8478 25.7418 48.9845 25.0972 49.1407ZM30.9566 53.1642C32.2652 53.4962 34.0035 54.4728 35.1168 55.5274C36.1129 56.4845 37.3043 58.2032 37.3043 58.7306C37.3043 58.8673 36.9136 59.1993 36.4254 59.4923C33.4761 61.211 29.316 61.172 26.5035 59.3946C25.234 58.5743 23.984 57.2657 23.2613 56.0353C22.9293 55.4493 22.6558 54.922 22.6558 54.8438C22.6558 54.7657 23.3785 54.3556 24.2769 53.9064C26.523 52.7931 28.5738 52.5587 30.9566 53.1642Z" fill="#915C46"/>
<path d="M68.0664 49.1406C67.4219 49.2969 66.1524 49.7852 65.2344 50.2344C63.8867 50.8984 63.2422 51.3867 61.8164 52.832C60.3516 54.2774 59.8828 54.9024 59.1797 56.3281C58.5352 57.6367 58.3008 58.3789 58.2422 59.2383L58.1445 60.3906L59.1797 61.3477C61.5234 63.5352 64.2578 64.6484 67.7149 64.8047C74.0039 65.0586 79.3164 61.6406 81.3672 55.9375C82.1094 53.9258 82.0313 53.6133 80.5859 52.2266C79.1602 50.8594 76.7969 49.5899 74.8047 49.1211C73.2031 48.75 69.6484 48.7695 68.0664 49.1406ZM73.9258 53.1641C74.7656 53.3789 77.3438 54.6484 77.3438 54.8633C77.3438 54.9219 77.0703 55.4492 76.7383 56.0352C74.1406 60.5469 68.1055 62.1289 63.5742 59.4922C63.0859 59.1992 62.6953 58.8672 62.6953 58.7305C62.6953 58.2031 63.8867 56.4844 64.9219 55.5078C67.3242 53.2227 70.6836 52.3633 73.9258 53.1641Z" fill="#915C46"/>
</svg>
