<svg width="20" height="21" viewBox="0 0 20 21" fill="none" xmlns="http://www.w3.org/2000/svg">
<g clip-path="url(#clip0_3107_743)">
<path d="M3.4961 0.554686C3.23048 0.640623 2.92188 0.812498 2.65626 1.02734C2.25001 1.35937 0.816415 2.83594 0.593759 3.15234C0.371103 3.46875 0.187509 3.91015 0.0937589 4.33984C0.0156339 4.71094 0.0156339 5.65234 0.0976652 6.15234C0.355478 7.76562 1.21095 9.75781 2.44142 11.6328C4.14845 14.2266 6.36329 16.4531 8.81642 18.0312C11.3281 19.6484 13.5781 20.5 15.3359 20.5C16.2344 20.5 16.8203 20.3203 17.4258 19.8633C17.7539 19.6172 19.4688 17.8437 19.6484 17.5664C19.8633 17.2344 19.9649 16.8867 19.9649 16.4922C19.9688 16.1133 19.918 15.918 19.7344 15.5586C19.6133 15.3164 19.4219 15.1094 18.1289 13.8047C16.3399 12.0039 16.1797 11.8828 15.4688 11.8398C15.0938 11.8125 14.7969 11.875 14.4453 12.0547C14.1992 12.1758 14.043 12.3125 13.2695 13.0742L12.375 13.957L12.0391 13.7812C11.1992 13.3437 10.1445 12.5469 9.2422 11.6719C8.07423 10.5352 7.1797 9.39844 6.70704 8.45312L6.53517 8.10547L7.36329 7.28125C7.83595 6.80859 8.25782 6.35156 8.35157 6.20703C8.79298 5.53515 8.79298 4.71875 8.34767 4.04297C8.12892 3.71094 5.45704 1.03515 5.1211 0.820311C4.77345 0.589842 4.44923 0.499998 4.00782 0.503904C3.81251 0.503904 3.58204 0.527342 3.4961 0.554686ZM4.41017 1.64062C4.6836 1.76562 7.37501 4.46484 7.51954 4.7539C7.66407 5.04297 7.64845 5.32812 7.46876 5.60547C7.40235 5.71094 6.94923 6.1875 6.46485 6.66797C5.94923 7.17969 5.54688 7.60937 5.50001 7.69922C5.36329 7.97265 5.41017 8.23828 5.71485 8.85156C6.23439 9.89844 6.9961 10.918 8.14454 12.0977C9.30079 13.2891 10.4453 14.1641 11.6524 14.793C12.1211 15.0352 12.2149 15.0703 12.3984 15.0703C12.5117 15.0703 12.6758 15.043 12.7578 15.0078C12.8594 14.9648 13.2188 14.6406 13.8477 14.0156C14.4336 13.4336 14.8516 13.0508 14.9609 12.9961C15.207 12.8672 15.5156 12.875 15.7461 13.0117C15.8399 13.0664 16.5547 13.75 17.332 14.5312C18.8477 16.0508 18.9024 16.1211 18.9063 16.4961C18.9063 16.8633 18.793 17.0234 17.8828 17.9531C16.7149 19.1406 16.6719 19.1758 16.1719 19.3437C15.6406 19.5195 15.0938 19.5156 14.1641 19.3242C12.5625 18.9961 10.1797 17.8047 8.32032 16.3984C5.76954 14.4687 3.54298 11.8164 2.2461 9.15234C1.04688 6.6914 0.76954 4.875 1.4336 3.82031C1.62892 3.51172 3.41017 1.74609 3.63282 1.64062C3.8672 1.52734 4.17579 1.52734 4.41017 1.64062Z" fill="white"/>
</g>
<defs>
<clipPath id="clip0_3107_743">
<rect width="20" height="20" fill="white" transform="translate(0 0.5)"/>
</clipPath>
</defs>
</svg>
