<svg width="34" height="34" viewBox="0 0 34 34" fill="none" xmlns="http://www.w3.org/2000/svg">
<g clip-path="url(#clip0_3002_479)">
<path d="M15.7402 4.26064C13.3675 4.51489 11.1941 5.37234 9.25502 6.82304C8.62196 7.29664 7.32093 8.59778 6.84738 9.2309C5.55134 10.9608 4.75378 12.8103 4.39487 14.914C4.26028 15.6917 4.21044 17.4864 4.30016 18.299C4.52946 20.4327 5.22733 22.362 6.39377 24.0918L6.65297 24.4757L5.85043 26.8487C5.41177 28.1548 5.05785 29.2266 5.06283 29.2316C5.06782 29.2416 6.14951 28.9026 7.46549 28.4788C8.78147 28.0551 9.90304 27.7061 9.95289 27.7061C10.0027 27.7061 10.1623 27.7759 10.3018 27.8656C11.8969 28.8627 13.7413 29.4908 15.7003 29.7002C16.5128 29.7899 18.3074 29.7401 19.085 29.6055C21.1886 29.2465 23.0429 28.4489 24.7676 27.1528C25.4007 26.6792 26.7017 25.378 27.1753 24.7449C28.4912 22.9851 29.2938 21.0957 29.6577 18.9072C29.7873 18.1195 29.7873 15.8563 29.6577 15.0686C29.2938 12.8801 28.4912 10.9907 27.1753 9.2309C26.7017 8.59778 25.4007 7.29664 24.7676 6.82304C23.0429 5.53187 21.1985 4.73424 19.085 4.37032C18.6015 4.28557 18.2276 4.26064 17.2107 4.25067C16.5128 4.2407 15.8499 4.24568 15.7402 4.26064ZM12.9986 10.1781C13.1282 10.2329 13.203 10.3227 13.3176 10.552C13.6067 11.1203 14.6685 13.7326 14.6685 13.8721C14.6685 14.1064 14.4741 14.4155 13.9906 14.9689C13.7363 15.253 13.502 15.5372 13.4721 15.5871C13.3375 15.8413 13.4672 16.1803 13.9656 16.8882C15.0573 18.4386 16.3035 19.5254 17.8737 20.2781C19.1199 20.8814 19.2744 20.8415 20.077 19.7298C20.6552 18.9271 20.8845 18.7377 21.2185 18.8125C21.5574 18.8873 24.4636 20.3031 24.5882 20.4576C24.7676 20.672 24.6081 21.8485 24.319 22.4118C23.9053 23.2294 22.6242 23.9822 21.4577 24.0918C20.2464 24.2115 17.3603 23.2045 15.6505 22.0678C13.9208 20.9162 12.1412 19.0318 10.7554 16.8932C10.0576 15.8164 9.63386 14.5701 9.63386 13.5979C9.63386 12.5511 9.95787 11.6637 10.6308 10.871C10.9399 10.4971 11.229 10.2928 11.5929 10.1831C11.882 10.0884 12.7793 10.0884 12.9986 10.1781Z" fill="#080808"/>
</g>
<defs>
<clipPath id="clip0_3002_479">
<rect width="25.5" height="25.5" fill="white" transform="translate(4.25 4.25)"/>
</clipPath>
</defs>
</svg>
