<svg width="20" height="18" viewBox="0 0 20 18" fill="none" xmlns="http://www.w3.org/2000/svg">
<path d="M19.0039 0.382812C18.875 0.414062 16.7305 1.23828 14.2383 2.21484C11.7461 3.19141 7.66016 4.79688 5.15625 5.77734C2.65234 6.75781 0.535156 7.60156 0.445312 7.65234C0.359375 7.70312 0.222656 7.81641 0.144531 7.90234C0.0195312 8.04297 0 8.08594 0 8.25781C0 8.59375 0.195312 8.85938 0.578125 9.05469C0.648438 9.09375 1.69922 9.45703 2.91406 9.86328L5.12109 10.6055L10.793 7.00391C13.9141 5.01953 16.5469 3.36719 16.6445 3.32422C16.8945 3.21875 17.0312 3.25391 17.0312 3.42188C17.0312 3.52734 16.9805 3.59766 16.7031 3.85938C16.5234 4.03516 14.4492 5.90625 12.0977 8.02344C8.10938 11.6094 7.82422 11.875 7.88281 11.9336C8.10938 12.1562 15.2031 17.5352 15.332 17.582C15.5469 17.6641 16.0352 17.6641 16.2188 17.582C16.418 17.4961 16.7305 17.1953 16.8086 17.0195C16.8945 16.8203 20 1.13281 20 0.898438C20 0.683594 19.918 0.523438 19.7656 0.433594C19.6133 0.34375 19.2773 0.320312 19.0039 0.382812Z" fill="white" fill-opacity="0.7"/>
</svg>
