<svg width="100" height="100" viewBox="0 0 100 100" fill="none" xmlns="http://www.w3.org/2000/svg">
<path d="M46.0221 0.386726C44.2736 0.853675 42.6041 2.12993 41.0498 3.37512C38.6601 5.30129 36.8281 5.85379 34.0886 5.36739C29.484 4.55023 25.5551 5.986 22.155 9.35192C20.6785 10.8111 19.9877 12.2897 19.1717 14.3326C18.0059 17.3094 17.0359 18.1848 14.1993 19.3132C11.421 20.4223 9.78687 21.2549 8.23256 23.2978C5.72625 26.5859 4.58859 30.1694 5.24917 34.2552C5.71547 37.1153 5.06713 39.1853 3.26025 41.2282C2.15281 42.4928 0.626579 45.4734 0.27686 47.205C-0.0922868 48.956 -0.0922868 51.4307 0.27686 53.1818C0.626579 54.9134 2.15281 57.8939 3.26025 59.1586C5.06713 61.2015 5.71547 63.2714 5.24917 66.1315C4.7246 69.3028 4.84476 71.2599 6.24364 74.1005C7.87566 77.4276 10.3136 79.6143 14.1993 81.0735C16.4725 81.9101 18.0642 83.2135 19.1717 86.0541C19.9488 88.0581 20.7562 89.6534 22.155 91.0348C25.4968 94.4007 29.3285 95.7587 34.0886 95.0193C37.0612 94.5524 38.6212 95.0465 41.0498 97.0116C43.7116 99.1518 46.5222 100 50 100C53.4777 100 56.2884 99.1518 58.9502 97.0116C61.3982 95.0465 62.8417 94.5524 65.9114 95.0193C67.6989 95.3112 68.4904 95.1944 69.8893 95.0193C73.1339 94.5913 75.4358 93.2723 77.845 91.0348C79.5741 89.4005 79.9735 88.2332 80.8283 86.0541C81.9358 83.2135 83.5275 81.9101 85.8007 81.0735C92.6979 78.4858 95.8194 73.233 94.7508 66.1315C94.2845 63.0963 94.7774 61.5128 96.7397 59.1586C97.9443 57.6993 99.3346 54.9912 99.7231 53.1818C100.092 51.4307 100.092 48.956 99.7231 47.205C99.3346 45.3955 97.9443 42.6874 96.7397 41.2282C94.7774 38.874 94.2845 37.2904 94.7508 34.2552C95.2171 31.1228 95.0387 28.9711 93.7564 26.2862C92.1632 22.9203 89.7058 20.7919 85.8007 19.3132C83.5275 18.4766 81.9358 17.1732 80.8283 14.3326C80.0123 12.2897 79.3215 10.8111 77.845 9.35192C74.4449 5.986 70.516 4.55023 65.9114 5.36739C63.1719 5.85379 61.3399 5.30129 58.9502 3.37512C57.3764 2.09102 55.7847 0.853675 53.9778 0.386726C51.9767 -0.138591 48.0039 -0.119135 46.0221 0.386726ZM52.9834 6.36352C53.5857 6.597 54.098 7.67482 54.9723 8.35579C58.6055 11.1186 61.6954 11.9668 65.9114 11.3442C67.7183 11.0913 68.0399 11.1691 68.8948 11.3442C71.8674 11.9473 74.904 13.5426 75.856 16.3249C77.1772 20.1577 79.9843 22.9709 83.8117 24.2939C86.6095 25.2667 88.2206 28.2706 88.784 31.2668C88.9395 32.1618 89.056 32.4653 88.784 34.2552C88.4732 36.3565 88.4926 36.586 88.784 38.2398C89.1532 40.4772 90.2908 42.3877 91.7674 44.2166C92.3697 44.9559 92.4705 46.5824 92.7619 47.205C93.2282 48.1778 93.7564 48.3839 93.7564 50.1934C93.7564 52.0028 93.2282 52.209 92.7619 53.1818C92.4705 53.8044 92.3697 55.4308 91.7674 56.1702C90.2908 57.999 89.1532 59.9095 88.784 62.147C88.4926 63.8007 88.4732 64.0302 88.784 66.1315C89.056 67.9215 88.9395 68.2249 88.784 69.1199C88.2206 72.1161 86.6095 75.12 83.8117 76.0928C79.9843 77.4158 77.1772 80.229 75.856 84.0619C74.904 86.8441 71.8674 88.4394 68.8948 89.0425C68.0399 89.2176 67.7183 89.2955 65.9114 89.0425C61.6954 88.4199 58.5861 89.2682 54.9723 92.0309C52.9129 93.6069 52.176 93.9065 50 94.0232C47.7463 94.1205 47.2426 93.7431 45.0277 92.0309C41.3945 89.2682 38.3046 88.4199 34.0886 89.0425C32.2817 89.2955 31.9601 89.2176 31.1052 89.0425C28.1326 88.4394 25.096 86.8441 24.144 84.0619C23.464 82.0773 22.6566 80.5793 21.1606 79.0812C19.6646 77.5831 18.3254 76.8905 16.1883 76.0928C13.2739 75.0227 11.7794 72.1356 11.216 69.1199C11.0605 68.2444 10.9634 67.8436 11.216 66.1315C11.7988 62.0262 10.7777 59.3415 8.23256 56.1702C7.6497 55.4503 7.52953 53.8044 7.2381 53.1818C6.77181 52.209 6.24364 52.0028 6.24364 50.1934C6.24364 48.3839 6.77181 48.1778 7.2381 47.205C7.52953 46.5824 7.6497 44.9364 8.23256 44.2166C9.98115 42.0569 10.8662 40.8664 11.216 38.2398C11.3908 36.8973 11.488 36.0063 11.216 34.2552C10.9634 32.5626 11.0411 32.1618 11.216 31.2668C11.7794 28.2317 13.2545 25.3835 16.1883 24.2939C20.1712 22.8152 22.8228 20.1577 24.144 16.3249C25.096 13.5426 28.1326 11.9473 31.1052 11.3442C31.9601 11.1691 32.2817 11.0913 34.0886 11.3442C38.2852 11.9668 41.5499 11.0602 45.0277 8.35579C47.0677 6.77984 47.9794 6.38298 50 6.36352C51.1657 6.36352 52.1868 6.07168 52.9834 6.36352Z" fill="#915C46"/>
<path d="M44.7508 31.8763C41.3895 32.6779 38.6249 35.4276 37.7896 38.8492C37.5509 39.8854 37.7896 42.4151 37.7896 50.8028C37.7896 56.8247 37.6702 60.9977 37.7896 61.7602C38.247 64.5952 40.3553 67.5796 42.7619 68.7332C48.2911 71.3922 55.1927 68.3482 56.6844 62.7564C56.9429 61.7788 56.6844 60.2072 56.6844 50.8028C56.6844 40.3621 57.0424 38.9675 56.6844 37.853C55.2325 33.2388 49.5839 30.7227 44.7508 31.8763ZM48.7287 38.8492C49.8027 39.3966 50.4988 39.727 50.7176 40.8414C50.9364 41.9559 50.9364 59.6496 50.7176 60.7641C50.4789 61.8981 49.8425 63.1855 48.7287 63.7525C47.9729 64.124 47.4757 63.8698 46.7397 63.7525C45.6061 63.5961 44.0746 62.8356 43.7564 61.7602C43.4182 60.7044 43.4381 40.7838 43.7564 39.8453C44.2138 38.5549 46.4414 37.8726 47.7342 37.853C48.0723 37.853 48.2513 38.6146 48.7287 38.8492Z" fill="#915C46"/>
<path d="M26.8505 32.8724C25.5209 33.276 24.8616 34.877 24.8616 36.8569V37.853H23.8671C22.9174 38.0068 22.2391 38.9419 21.8782 39.8453C21.4793 40.8641 21.4223 41.8149 21.8782 42.8337C22.1631 43.468 23.2403 43.5415 23.8671 43.8298C24.323 44.0413 24.6716 43.8298 24.8616 43.8298C25.1655 43.8298 24.8616 44.5069 24.8616 53.7912V63.7525H23.8671C21.227 64.1754 21.4359 68.5567 23.8671 69.7293C24.5889 70.0945 24.6161 69.7293 27.845 69.7293C31.1118 69.7293 31.0441 70.0945 31.8228 69.7293C34.235 68.5375 34.4629 64.1754 31.8228 63.7525H30.8283V33.8685C30.1636 32.6575 28.237 32.4495 26.8505 32.8724Z" fill="#915C46"/>
<path d="M62.6512 31.8762C61.3391 32.5699 60.6622 33.0861 60.6622 35.8608C60.6622 37.672 60.3921 38.3289 60.6622 38.8492C61.1446 39.8126 62.4686 40.7644 63.6456 40.8414C64.977 40.9378 66.0116 39.986 66.629 38.8492C67.0535 38.0592 66.6869 38.0188 66.629 35.8608C66.5711 33.8568 66.9763 33.3156 66.629 32.8724C65.6256 31.5043 64.0597 31.1248 62.6512 31.8762Z" fill="#915C46"/>
<path d="M75.5792 31.8762C75.2609 32.0109 74.8433 32.6223 74.5847 32.8724C73.8886 33.6226 60.6622 64.783 60.6622 65.7448C60.6622 66.8412 61.6368 68.2138 62.6512 68.7332C64.0036 69.4256 64.66 68.7565 65.6345 67.737C66.271 67.0638 79.557 35.7302 79.557 34.8646C79.557 32.8257 77.5084 31.0491 75.5792 31.8762Z" fill="#915C46"/>
<path d="M75.5792 59.768C75.2119 59.9616 73.8415 60.3574 73.5902 60.7641C73.1843 61.4612 73.5516 62.483 73.5902 64.7486C73.6482 67.4015 73.4057 67.8424 74.5847 68.7332C75.2805 69.256 77.7121 69.2366 78.5626 68.7332C79.6836 68.0554 79.557 67.3434 79.557 64.7486C79.557 62.2119 79.529 60.4651 78.5626 59.768C77.8087 59.2064 76.4489 59.2839 75.5792 59.768Z" fill="#915C46"/>
</svg>
