<svg width="100" height="100" viewBox="0 0 100 100" fill="none" xmlns="http://www.w3.org/2000/svg">
<path d="M34 5.18597C18.6 11.1786 14 14.8291 14 21.1546C14 23.7071 13.5 24.7022 11 26.1449C3.6 30.2509 0 36.2304 0 44.1096C0 48.5486 1.9 52.6341 11 72.0548C16.8 84.595 22 95.5632 23 97.0059C24.5 99.0034 25.8 100 29 100C33 100 34.5 99.5649 45 88.0235L56 76.047L74 68.0626C97 58.0749 100 54.3215 100 41.1155C100 34.7899 99 30.8051 96 27.1429C93.2 23.8136 68.4 4.85525 63 2.19184C56.1 -1.24839 49.8 -0.917671 34 5.18597ZM75 18.1605C83.7 24.7081 92 31.3556 93 33.1312C97 39.7897 94.2 51.5369 88 55.0881C86.5 55.9759 78.8 59.2993 70 63.0724L54 70.0587L42 83.0333C33.4 92.3552 30.2 95.5647 29 95.0098C28.1 94.5659 24.7 88.915 22 83.0333C19.4 77.1516 14.3 66.9588 11 60.0783C4.5 46.5393 4.1 42.1172 7 37.1233C8.4 34.9038 12.5 31.1351 14 31.1351C14.2 31.1351 15 33.0187 16 35.1272C17.2 37.6797 22.4 41.9967 33 50.0979C47.5 61.0844 49.2 61.7415 55 62.0744C60.4 62.5183 62 62.189 74 57.0842C91.3 49.7598 92 49.2145 92 44.1096C92 38.8938 89.2 36.1253 85 36.1253C81.8 36.1253 62.4 43.1101 60 45.1077C58.3 46.6613 59.5 49.0998 62 49.0998C63.1 49.0998 68.8 47.2162 74 45.1077C84.9 40.6687 87.5 40.3372 87 43.1116C86.6 45.775 61.4 57.0842 56 57.0842C52.7 56.9732 49 55.2057 37 46.1057C20.7 33.7875 20.1 32.4697 19 27.1429C17.8 21.2612 19.7 17.3859 25 15.1664C56.2 2.29326 53.5 2.29105 75 18.1605Z" fill="#915C46"/>
</svg>
