<svg width="100" height="100" viewBox="0 0 100 100" fill="none" xmlns="http://www.w3.org/2000/svg">
<path fill-rule="evenodd" clip-rule="evenodd" d="M6.14543 14.9998C3.3534 15.89 0.980765 18.1745 0.157555 20.9876C-0.117561 21.9279 0.157555 25.3929 0.157555 49.929C0.157555 76.3798 -0.196944 77.7343 0.157555 78.8704C1.04147 81.7039 3.29192 84.0274 6.14543 84.8583C7.09569 85.1348 11.9628 84.8583 50.0565 84.8583C91.6954 84.8583 92.7439 85.2352 93.9676 84.8583C94.6522 84.6473 95.4617 84.1918 95.9635 83.8603C97.772 82.6654 99.679 79.5952 99.9554 77.8724C99.8621 77.8724 100.02 77.472 99.9554 77.8724C100.051 77.8724 99.9642 65.6295 99.9554 49.929C99.9471 34.6385 100.016 21.8311 99.9554 21.9856C99.8934 22.1424 99.1083 21.5751 98.9575 20.9876C98.6189 19.6681 98.0968 19.2043 96.9615 17.9937C95.9064 16.8684 95.5583 15.4937 93.9676 14.9998C92.8288 14.6462 91.1016 14.9897 50.0565 14.9998C9.43943 15.0097 7.21379 14.6592 6.14543 14.9998ZM8.14139 20.9876C7.42558 21.3059 6.42152 22.2568 6.14543 22.9836C6.02577 23.2988 6.14543 24.9123 6.14543 26.9755V30.9674H50.0565H93.9676V26.9755C93.902 22.739 94.2679 21.9545 92.9696 20.9876H91.9716H50.0565C15.5439 20.9533 8.62372 20.7732 8.14139 20.9876ZM0.157555 49.929C0.157555 65.2464 0.129343 71.5593 0.157555 63.9007C0.185768 56.242 0.185768 43.6159 0.157555 35.9573C0.129343 28.2985 0.157555 34.6117 0.157555 49.929ZM6.14543 56.9149C6.1964 77.1394 5.74696 77.3403 6.14543 77.8724C6.36607 78.1672 6.84786 78.6503 7.14341 78.8704H8.14139H50.0565H91.9716H92.9696C93.2651 78.6503 92.749 78.1672 92.9696 77.8724C93.3681 77.3403 93.9166 77.1394 93.9676 56.9149V35.9573H50.0565H6.14543V56.9149ZM23.1111 43.9411C21.7798 44.344 21.1151 45.2295 21.1151 45.9371C21.1151 46.5993 27.7155 69.3019 28.101 69.8886C29.1647 71.508 33.6754 71.474 35.0868 69.8886C35.518 69.4042 42.0727 46.851 42.0727 45.9371C42.0727 45.1164 41.4385 44.3359 40.0767 43.9411C38.7702 43.5623 37.6147 44.3293 37.0828 44.9391C36.8158 45.2452 35.8107 48.5443 34.0888 54.9189C32.4615 60.9443 32.1857 64.1173 32.0929 63.9007C32.0135 63.7158 30.3335 59.4554 29.0989 54.9189C27.8644 50.3824 27.2631 46.496 27.103 45.9371C26.8808 45.1616 26.5393 44.1653 26.105 43.9411C25.4983 43.6283 23.9255 43.6947 23.1111 43.9411ZM49.0585 43.9411C47.5701 44.4702 47.1161 43.4639 47.0626 56.9149C47.025 66.324 46.8713 69.5105 47.0626 69.8886C47.4208 70.597 48.7661 70.8864 50.0565 70.8866C51.3196 70.887 52.4829 70.4547 53.0504 69.8886C53.4415 69.4985 53.0504 70.0507 53.0504 57.9128V44.9391C52.2235 44.1708 50.437 43.4511 49.0585 43.9411ZM61.0343 43.9411C60.6949 44.0883 60.1517 44.7239 60.0363 44.9391C59.8088 45.363 59.8125 69.3066 60.0363 69.8886C60.3886 70.8044 62.6044 71.4799 64.0282 70.8866C65.2635 70.3717 66.0242 70.4846 66.0242 65.8967V60.9068H68.0201C72.251 60.9023 74.1678 60.9146 76.004 58.9108C77.5004 57.2777 77.9923 56.1836 77.9999 52.923C78.0055 50.5236 78.3982 49.9167 77.9999 48.931C77.2724 47.1298 75.6433 45.7342 74.008 44.9391C73.2231 44.5576 72.7125 44.05 72.012 43.9411C70.0387 43.6341 61.79 43.6132 61.0343 43.9411ZM66.0242 52.923V56.9149H68.0201C70.7736 56.9149 71.3233 56.2365 72.012 54.9189C72.3996 54.1779 72.0638 54.376 72.012 52.923C71.9476 51.115 72.1056 50.7418 71.0141 49.929C70.5699 49.5981 70.0734 48.9994 68.0201 48.931H66.0242V52.923ZM78.9979 66.8947C77.9505 67.114 77.4269 67.8727 77.0019 68.8906C76.3746 70.3931 77.4824 72.251 78.9979 72.8825C79.874 73.2476 84.1096 73.2476 84.9858 72.8825C87.1567 71.9778 87.9814 69.124 85.9837 67.8926C85.3341 67.4921 85.1641 66.9426 82.9898 66.8947C81.6403 66.865 79.4061 66.8091 78.9979 66.8947Z" fill="#915C46"/>
</svg>
