<svg width="100" height="100" viewBox="0 0 100 100" fill="none" xmlns="http://www.w3.org/2000/svg">
<path fill-rule="evenodd" clip-rule="evenodd" d="M36.0001 9.99995C27.8512 10.6696 27.0421 10.9507 25.0001 14C23.7787 15.8243 21.964 20.8113 21.0001 24C19.3559 29.4359 18.2896 29 15.0001 29C10.9712 29 11.463 29.8125 11.0001 33C10.7286 34.8719 10.6816 34.6866 13.0001 35L16.0001 36L12.0001 40L8.00014 44V64C7.63342 87.5478 7.98844 88 16.0001 88C21.1552 88 24.0001 85.7546 24.0001 82C24.0001 80.0589 25.8248 80 50.0001 80C74.1755 80 76.0001 80.0589 76.0001 82C76.0001 85.7546 78.845 88 84.0001 88C92.0118 88 92.3669 87.5478 92.0001 64V44L88.0001 40L84.0001 36L87.0001 35C89.3187 34.6866 89.2717 34.8719 89.0001 33C88.5382 29.8196 88.9048 29 85.0001 29C81.7828 29 81.6764 29.3043 79.0001 22C77.4471 17.7615 75.1634 12.8686 74.0001 12C71.4662 10.1089 49.1539 8.92039 36.0001 9.99995ZM29.0001 15C27.0263 15.983 25.4069 20.4716 23.0001 28L22.0001 31H50.0001H78.0001L76.0001 26C72.5063 14.7872 73.4812 14.2919 51.0001 14C40.0837 13.8582 30.1534 14.4256 29.0001 15ZM16.0001 41L12.0001 46V55C12.0863 68.3539 13.1856 72.7619 16.0001 74C18.1494 74.9449 17.6474 74.4391 17.0001 72C15.5743 66.6224 16.0393 63.7054 17.0001 63C17.5392 62.6032 19.8189 62.6988 23.0001 64C28.044 66.0638 31.9287 67 50.0001 67C68.1517 67 71.8751 66.0971 77.0001 64C81.5951 62.1208 82.3509 61.8215 83.0001 63C83.7827 64.4227 83.4861 65.631 82.0001 72C81.434 74.426 81.864 74.9389 84.0001 74C86.8137 72.7631 87.914 68.3349 88.0001 55V46L83.0001 41L79.0001 36H50.0001H20.0001L16.0001 41ZM14.0001 48C12.9721 52.6769 16.1044 56.6474 18.0001 53C18.3408 52.3446 19.7006 52 21.0001 52C23.978 52 27.0001 51.3262 27.0001 50C27.0001 49.0765 24.4918 47.9958 17.0001 46C14.875 45.4328 14.454 45.9361 14.0001 48ZM79.0001 47C76.0904 47.8376 73.3809 48.5472 73.0001 49C71.9631 50.232 74.9341 51.9785 78.0001 52C79.483 52.0095 81.6595 52.3446 82.0001 53C82.9931 54.91 84.9311 54.376 86.0001 52C86.9851 49.811 86.2005 44.8081 85.0001 45C84.6515 45.056 81.9098 46.1611 79.0001 47ZM38.0001 51L32.0001 52L39.0001 53C42.8136 53.5493 46.9922 54.2516 48.0001 55C49.3859 56.0295 50.5393 56.0855 52.0001 55C53.0642 54.2087 57.2428 53.5052 61.0001 53L68.0001 52L61.0001 51C53.249 50.0812 46.1691 50.0419 38.0001 51ZM20.0001 69C20.2256 69.8198 22.1706 71.526 24.0001 73C27.2054 75.5833 28.3768 76 50.0001 76C73.2347 76 75.6386 75.8175 79.0001 71C81.0752 68.0258 79.7214 66.979 74.0001 69C66.6588 71.5928 33.1081 72.5642 26.0001 70C19.9854 67.8301 19.4771 67.1065 20.0001 69ZM12.0001 80C12.0001 82.8299 12.349 83 16.0001 83C19.3397 83 20.0001 82.9863 20.0001 81C20.0001 79.2734 19.7546 78 18.0001 78C16.6675 78 14.8718 78.3979 14.0001 78C12.8048 77.4542 12.0001 77.6573 12.0001 80ZM83.0001 78C80.5864 78.3562 80.0001 79.29 80.0001 81C80.0001 82.8981 80.7037 83 84.0001 83C87.6072 83 88.0001 82.681 88.0001 80C88.0001 78.3615 87.413 76.8951 87.0001 77C86.5873 77.1048 84.7907 77.7366 83.0001 78Z" fill="#915C46"/>
</svg>
