<svg width="20" height="20" viewBox="0 0 20 20" fill="none" xmlns="http://www.w3.org/2000/svg">
<path d="M5.17139 0.683624C4.43966 0.812998 3.60837 1.14141 2.98117 1.55441C1.97566 2.21124 1.12446 3.42537 0.780993 4.67931C0.705001 4.96005 0.666504 5.24961 0.666504 5.54045V10.0036V14.4134C0.666504 14.7395 0.711735 15.064 0.800904 15.3776C1.06473 16.3181 1.53264 17.1242 2.20464 17.7959C2.87664 18.4677 3.68304 18.9354 4.62384 19.1991C4.93758 19.2883 5.26217 19.3335 5.58833 19.3335H9.99984H14.479C14.7603 19.3335 15.0403 19.295 15.3111 19.219C16.2768 18.9553 17.123 18.4727 17.795 17.7959C18.467 17.1242 18.9349 16.3181 19.1988 15.3776C19.2879 15.064 19.3332 14.7395 19.3332 14.4134V10.0036V5.59372C19.3332 5.26766 19.2879 4.94318 19.1988 4.62955C18.6711 2.75362 17.2923 1.36533 15.4007 0.808023C15.1036 0.718929 14.7952 0.67351 14.485 0.673189L10.1243 0.668695C7.47113 0.663719 5.24108 0.668695 5.17139 0.683624ZM15.779 3.79857C15.8985 3.86326 16.0677 4.01254 16.1474 4.12698C16.3465 4.41061 16.3614 4.8485 16.1773 5.14208C15.7641 5.80886 14.7934 5.7591 14.4749 5.05251C14.0965 4.2265 14.9826 3.38059 15.779 3.79857ZM11.1646 5.74914C12.4539 6.12234 13.3947 6.91352 13.9621 8.08784C14.3006 8.78448 14.3952 9.20743 14.3952 10.0036C14.3952 10.8196 14.3006 11.2376 13.9373 11.9691C13.4992 12.8548 12.8521 13.5017 11.9661 13.9396C11.2293 14.3028 10.8162 14.4023 9.99984 14.3974C9.20339 14.3974 8.7753 14.3028 8.08339 13.9644C6.91361 13.4022 6.1321 12.4717 5.73886 11.168C5.61939 10.7749 5.60446 10.6455 5.60446 10.0285C5.60446 9.26714 5.6841 8.84916 5.9529 8.24707C6.25655 7.54546 6.88375 6.77917 7.4761 6.37611C7.99379 6.02282 8.76037 5.71929 9.36766 5.61977C9.84055 5.54513 10.6768 5.60484 11.1646 5.74914Z" fill="white" fill-opacity="0.7"/>
<path d="M9.41223 6.76917C8.99907 6.84381 8.44156 7.08265 8.09312 7.33145C7.52067 7.73948 7.12743 8.27688 6.88352 8.98347C6.75907 9.33676 6.74414 9.45121 6.74414 10.0035C6.74414 10.5409 6.76405 10.6803 6.87854 11.0236C7.20707 12.0138 7.9637 12.7652 8.97916 13.1185C9.33258 13.2429 9.44707 13.2578 9.99961 13.2578C10.5521 13.2578 10.6666 13.2429 11.0201 13.1185C12.0505 12.7602 12.7822 12.0288 13.1157 11.0186C13.2451 10.6255 13.2601 10.5061 13.2601 9.97866C13.2551 9.45618 13.2352 9.33179 13.1157 8.98347C12.7623 7.9634 12.0505 7.24686 11.0549 6.90352C10.582 6.74429 9.8901 6.68458 9.41223 6.76917Z" fill="white" fill-opacity="0.7"/>
</svg>
