<svg width="100" height="100" viewBox="0 0 100 100" fill="none" xmlns="http://www.w3.org/2000/svg">
<path d="M34.3135 2.32851C31.5066 2.64991 28.914 3.76409 27.3713 5.28538C26.8999 5.7782 25.9571 6.44242 25.3143 6.80668C20.879 9.18503 18.9077 14.3274 18.8863 23.498V25.855L18.2649 26.2835C17.0222 27.1191 16.7437 27.9548 16.7437 31.0188C16.7437 34.0828 16.9793 34.8756 18.2221 36.2897C18.972 37.1468 20.8147 38.1753 21.6075 38.1753C22.0146 38.1753 22.1003 38.2824 22.1003 38.7966C22.1003 39.868 23.1074 43.4248 23.9001 45.1389C25.6357 48.8672 28.9568 52.4026 32.4494 54.1595C33.0065 54.4381 33.4564 54.7595 33.4564 54.8666C33.4564 54.9523 32.9422 55.038 32.3208 55.038C31.0138 55.038 29.7068 55.638 28.914 56.5593C28.5497 56.9879 27.9712 57.3093 27.1141 57.5449C23.5145 58.5734 20.5576 60.2019 17.9864 62.5802C15.7366 64.6586 14.3653 66.5013 13.0797 69.1368C11.3227 72.715 11.0442 74.2363 10.4228 83.664C9.88713 91.6776 9.88713 91.849 10.2728 92.3847L10.6799 92.9203L48.2622 92.9846C74.017 93.0275 86.0802 92.9846 86.6159 92.8132C87.7515 92.4918 88.8871 91.1633 89.0585 89.9634C89.3157 88.2493 88.3515 86.4281 86.873 85.8067C86.4659 85.6567 86.1231 85.3996 86.0802 85.2496C86.0374 85.0996 85.8874 84.3711 85.7374 83.5997C84.966 79.4001 81.9449 75.2005 78.0667 72.8864C76.7597 72.1151 74.4241 71.2151 72.86 70.8723C72.3458 70.7652 72.2815 70.6366 72.1958 69.4796C72.1315 68.5154 71.9601 68.0226 71.5101 67.4226C70.8245 66.5227 69.4746 65.8371 68.4247 65.8156C67.8247 65.8156 67.4605 65.5371 65.7678 63.7801C62.8323 60.7161 59.2969 58.552 55.5901 57.5878C54.7116 57.3521 54.1546 57.0307 53.4689 56.3665C52.4618 55.3809 51.0048 54.8666 49.8049 55.0595C48.6693 55.2309 48.9907 54.8452 50.662 53.9881C55.7615 51.3527 59.7469 45.4818 60.4111 39.6537L60.5611 38.3681L61.6753 37.9824C64.8036 36.9325 66.1749 34.4256 65.9821 30.1403C65.8964 27.9762 65.4464 26.9049 64.3322 26.2621L63.7323 25.8978L63.6037 22.341C63.518 19.7912 63.368 18.3128 63.0466 17.1343C61.0754 9.61356 55.3759 4.12835 47.9194 2.58563C46.3124 2.24281 45.1125 2.19995 40.5272 2.22138C37.5275 2.24281 34.7206 2.28566 34.3135 2.32851ZM48.1337 5.90676C53.8117 7.53518 58.2042 11.9276 59.8112 17.6057C60.154 18.7842 60.304 20.0912 60.3897 22.5124L60.5183 25.8121L58.8256 25.6621C54.9259 25.3193 47.5766 23.9266 42.7984 22.6195C36.2205 20.8197 32.7065 19.2127 30.8209 17.1557C29.8996 16.1915 29.4925 15.8916 29.0211 15.8916C28.1855 15.8916 26.4713 17.2414 25.4643 18.677C24.5001 20.0698 24.0501 21.4839 23.8573 23.8623L23.7073 25.6407L22.9145 25.705L22.1003 25.7692V23.6694C22.1003 15.3773 23.643 11.242 27.3284 9.46358C28.1212 9.09933 28.914 8.52081 29.3211 8.02799C30.1782 6.93524 31.8709 6.05674 33.735 5.69249C36.0919 5.26396 46.3981 5.41394 48.1337 5.90676ZM30.1782 20.9697C34.4206 23.8837 43.6984 26.7334 53.7046 28.1905C55.0116 28.3833 56.3829 28.5976 56.7686 28.6618L57.4543 28.769V33.14C57.4543 38.1538 57.24 40.1251 56.4044 42.4606C55.5473 44.9032 54.5831 46.4031 52.5261 48.4601C49.5907 51.4169 46.2267 52.8954 42.0271 53.1096C40.2058 53.1953 39.413 53.1311 37.9132 52.7668C31.8923 51.3312 27.3498 46.8102 25.7214 40.6393C25.3572 39.2252 25.25 38.0467 25.1643 33.7614C25.0358 28.619 25.0358 28.5761 25.4857 28.4476C26.4499 28.1262 26.857 27.162 27.0284 24.7193C27.1356 23.4552 27.307 22.1481 27.4355 21.8053C27.6927 21.1839 28.4854 19.9626 28.6569 19.9626C28.6997 19.9626 29.3854 20.4126 30.1782 20.9697ZM22.1003 31.9615C22.1003 33.6114 22.0146 34.9613 21.9075 34.9613C21.5646 34.9613 20.6004 34.0614 20.2576 33.44C19.8934 32.7115 19.6148 30.3331 19.8291 29.5189C19.9576 29.0047 20.0648 28.9618 21.029 28.9618H22.1003V31.9615ZM62.7681 30.4617C62.8109 31.233 62.7681 32.1544 62.7038 32.5401C62.5752 33.2686 61.7396 34.4042 61.0754 34.7684C60.6897 34.9613 60.6683 34.8541 60.6683 31.9615V28.9404L61.6967 29.0047L62.7038 29.0689L62.7681 30.4617ZM41.2771 56.2808C42.5842 56.2808 44.1483 56.1951 44.7697 56.1094C45.7553 55.9594 45.8839 55.9808 45.8839 56.3236C45.8839 56.5379 45.541 56.9022 45.0697 57.1593C44.3626 57.5664 44.2126 57.5878 43.6341 57.3307C42.7342 56.945 39.713 56.945 38.9631 57.3521C38.406 57.6307 38.2774 57.6307 37.5061 57.1807C37.0132 56.9021 36.6704 56.5379 36.6704 56.3236C36.6704 55.9594 36.7776 55.938 37.806 56.1094C38.406 56.1951 39.9915 56.2808 41.2771 56.2808ZM34.9134 59.4519L36.6704 60.4804V63.2016L34.742 64.2943C32.5565 65.5371 31.9566 65.6228 31.3352 64.83C30.9495 64.3372 30.8852 63.9515 30.8852 61.9374C30.8852 59.3662 31.0995 58.6377 31.9351 58.3592C32.6208 58.1235 32.7065 58.1449 34.9134 59.4519ZM51.3048 58.7877C51.6048 59.1519 51.6691 59.6448 51.6691 61.7446C51.6691 63.9729 51.6262 64.3158 51.2191 64.83C50.9834 65.13 50.5763 65.3871 50.3192 65.3871C50.0835 65.3871 48.9693 64.8943 47.8765 64.2729L45.8624 63.1587L45.991 60.4161L48.0265 59.2591C50.1478 58.0378 50.5977 57.9735 51.3048 58.7877ZM42.627 61.5946C42.7127 63.1373 42.477 63.4587 41.2986 63.4587C40.1201 63.4587 39.8844 63.1802 39.8844 61.8517C39.8844 60.459 40.1415 60.2019 41.4914 60.2876L42.5627 60.3518L42.627 61.5946ZM27.7141 63.073C27.7998 65.6871 28.2926 66.8013 29.771 67.8512C30.6281 68.4297 30.8638 68.494 32.5137 68.5154L34.3349 68.5368L39.6487 76.8503L39.6701 83.3212V89.8135H22.1003V63.4801L22.7431 63.0302C23.5787 62.4302 26.8356 60.9089 27.2641 60.8875C27.5641 60.8875 27.6284 61.2303 27.7141 63.073ZM56.7472 61.4232C57.4543 61.7017 58.6327 62.2802 59.3612 62.7088L60.6683 63.4801V71.8151L59.5541 72.3722C58.0328 73.1221 55.5901 75.0077 54.6474 76.1433C52.6547 78.543 51.5405 80.8357 50.8977 83.7497C50.5334 85.5067 50.512 85.5281 49.5907 85.9781C48.4765 86.5138 47.598 87.8636 47.598 89.0207V89.8135H42.8841V77.0432L45.6268 72.7364L48.3479 68.4083L49.6764 68.5368C51.4334 68.7082 52.6761 68.2368 53.7046 67.0369C54.6474 65.9442 54.8831 65.1086 54.8831 62.7516C54.8831 61.3375 54.9473 60.8875 55.1616 60.8875C55.333 60.8875 56.0401 61.1232 56.7472 61.4232ZM39.1345 66.3513C40.2701 66.7584 42.1985 66.7584 43.3984 66.3513C44.2983 66.0513 44.4269 66.0513 44.9197 66.3727C45.2196 66.5656 45.4553 66.7584 45.4553 66.8227C45.4553 66.9512 41.7914 72.7364 41.5128 73.0364C41.32 73.2507 40.8058 72.5864 39.3487 70.2938C38.2774 68.6225 37.3561 67.1227 37.2489 66.9727C37.1418 66.7798 37.2918 66.587 37.6775 66.3727C38.0203 66.2013 38.2774 66.0513 38.2774 66.0513C38.2774 66.0299 38.6631 66.1799 39.1345 66.3513ZM18.8863 78.1359V89.8135H13.3154V89.1064C13.3154 88.7421 13.5082 85.6138 13.7439 82.1856C14.2153 75.3505 14.5153 73.6578 15.7795 71.0223C16.6794 69.0939 18.4364 66.4584 18.822 66.4584C18.8649 66.4584 18.8863 71.7079 18.8863 78.1359ZM64.5893 68.6439C64.4179 69.1368 64.3322 69.8224 64.3965 70.1438C64.4822 70.5938 64.4393 70.7438 64.2036 70.7438C63.9465 70.7438 63.8822 70.3581 63.8822 68.6439L63.9037 66.5656L64.3965 67.1441C64.8893 67.7012 64.9107 67.744 64.5893 68.6439ZM68.7675 69.2867C69.1318 69.651 69.0889 70.2509 68.6818 70.4009C68.1461 70.6152 67.9747 70.5509 67.739 70.1224C67.5891 69.801 67.6105 69.6296 67.8676 69.3725C68.2747 68.9653 68.4247 68.9439 68.7675 69.2867ZM72.0886 74.0435C76.9096 74.9648 81.0021 78.6716 82.3949 83.364C82.5877 84.0068 82.7377 84.7568 82.7377 85.0353V85.5281H53.8117L53.9403 84.9282C54.4974 82.4641 55.2045 80.8571 56.5329 79.0573C58.2042 76.7432 61.4182 74.7077 64.3322 74.0863C66.1535 73.6792 70.096 73.6578 72.0886 74.0435ZM85.6731 88.9778C85.8017 89.1064 85.866 89.3635 85.8017 89.5135C85.716 89.7706 82.8877 89.8135 68.3818 89.8135C56.5329 89.8135 51.0048 89.7492 50.9191 89.5992C50.8334 89.4706 50.8334 89.2349 50.8977 89.0635C51.0048 88.785 53.3832 88.7421 68.2318 88.7421C80.6593 88.7421 85.5017 88.8064 85.6731 88.9778Z" fill="#915C46"/>
<path d="M32.0419 30.4835C31.6991 30.8478 31.6348 31.2763 31.6348 32.7548C31.6348 34.4689 31.6563 34.5975 32.2348 35.0903C32.9633 35.7116 33.6489 35.7545 34.3989 35.1545C34.9345 34.7474 34.956 34.6189 34.956 32.7976C34.956 31.1692 34.8917 30.8264 34.5274 30.4621C33.9275 29.8622 32.599 29.8836 32.0419 30.4835Z" fill="#915C46"/>
<path d="M48.0262 30.4622C47.6619 30.8264 47.5977 31.1692 47.5977 32.712C47.5977 34.3832 47.6405 34.5975 48.1333 35.0689C48.6476 35.5831 49.3546 35.7331 50.0617 35.476C50.6617 35.2403 51.0259 34.1904 51.0259 32.6477C51.0259 30.7407 50.5545 30.0336 49.2904 30.0336C48.7333 30.0336 48.3047 30.1836 48.0262 30.4622Z" fill="#915C46"/>
<path d="M35.1712 40.4679C33.9285 40.9178 33.7785 42.2034 34.7212 43.8533C37.5067 48.6957 44.2775 48.9957 47.5344 44.4318C48.9057 42.5462 48.9271 41.0892 47.5986 40.5321C46.7416 40.1679 45.9274 40.6178 45.306 41.7963C44.6418 43.0605 44.2347 43.489 43.2276 44.0032C41.0207 45.1174 38.2995 44.0461 37.2067 41.6035C36.9496 41.0464 36.6282 40.7035 36.1783 40.5536C35.8354 40.425 35.5355 40.3179 35.514 40.3393C35.4926 40.3393 35.3426 40.4036 35.1712 40.4679Z" fill="#915C46"/>
<path d="M40.2277 67.766C39.4778 68.366 39.4564 69.4802 40.2063 70.2087C41.2562 71.2586 42.8846 70.5515 42.8846 69.0302C42.8846 68.3874 42.7561 68.1089 42.3275 67.766C42.0061 67.5089 41.5347 67.3161 41.2776 67.3161C41.0205 67.3161 40.5491 67.5089 40.2277 67.766Z" fill="#915C46"/>
</svg>
