<svg width="34" height="34" viewBox="0 0 34 34" fill="none" xmlns="http://www.w3.org/2000/svg">
<path d="M28.48 4.30174C28.3156 4.34781 25.5813 5.563 22.4038 7.00278C19.2263 8.44257 14.0167 10.8096 10.8242 12.2551C7.63174 13.7007 4.93232 14.9447 4.81777 15.0195C4.7082 15.0944 4.53389 15.2614 4.43428 15.3881C4.2749 15.5954 4.25 15.6588 4.25 15.9122C4.25 16.4075 4.49902 16.7991 4.98711 17.0871C5.07676 17.1447 6.4165 17.6803 7.96543 18.2792L10.7794 19.3734L18.011 14.0635C21.9904 11.1379 25.3473 8.70173 25.4718 8.63838C25.7905 8.48289 25.9648 8.53472 25.9648 8.78236C25.9648 8.93786 25.9001 9.04152 25.5465 9.42739C25.3174 9.68655 22.6728 12.4452 19.6745 15.5666C14.5895 20.8535 14.2259 21.2452 14.3006 21.3316C14.5895 21.6598 23.634 29.5902 23.7983 29.6593C24.0723 29.7802 24.6948 29.7802 24.9289 29.6593C25.1829 29.5326 25.5813 29.0891 25.681 28.83C25.7905 28.5363 29.75 5.4075 29.75 5.06195C29.75 4.7452 29.6454 4.50907 29.4512 4.37661C29.2569 4.24415 28.8286 4.20959 28.48 4.30174Z" fill="#080808"/>
</svg>
