<svg width="20" height="20" viewBox="0 0 20 20" fill="none" xmlns="http://www.w3.org/2000/svg">
<g clip-path="url(#clip0_3107_760)">
<path d="M9.00374 0.0275059C7.14437 0.226725 5.44124 0.8986 3.92171 2.03532C3.42562 2.40641 2.40609 3.42594 2.03499 3.92204C1.01937 5.27751 0.39437 6.72672 0.11312 8.37516C0.00765079 8.98454 -0.0314117 10.3908 0.0389008 11.0275C0.218588 12.6994 0.765463 14.2111 1.67953 15.5666L1.88265 15.8673L1.25374 17.7267C0.909995 18.7502 0.632651 19.59 0.636557 19.5939C0.640463 19.6017 1.48812 19.3361 2.51937 19.0041C3.55062 18.672 4.42953 18.3986 4.46859 18.3986C4.50765 18.3986 4.63265 18.4533 4.74203 18.5236C5.99203 19.3048 7.43734 19.797 8.97249 19.9611C9.60921 20.0314 11.0155 19.9923 11.6248 19.8869C13.2733 19.6056 14.7264 18.9806 16.078 17.965C16.5741 17.5939 17.5936 16.5744 17.9647 16.0783C18.9959 14.6994 19.6248 13.2189 19.91 11.5041C20.0116 10.8869 20.0116 9.11344 19.91 8.49626C19.6248 6.78141 18.9959 5.30094 17.9647 3.92204C17.5936 3.42594 16.5741 2.40641 16.078 2.03532C14.7264 1.0236 13.2811 0.3986 11.6248 0.113443C11.2459 0.0470371 10.953 0.0275059 10.1561 0.0196934C9.60921 0.0118809 9.08968 0.0157871 9.00374 0.0275059ZM6.85531 4.66422C6.95687 4.70719 7.01546 4.77751 7.10531 4.95719C7.33187 5.40251 8.1639 7.44938 8.1639 7.55876C8.1639 7.74235 8.01156 7.98454 7.63265 8.41813C7.43343 8.64079 7.24984 8.86344 7.2264 8.90251C7.12093 9.10172 7.22249 9.36735 7.61312 9.92204C8.46859 11.1369 9.44515 11.9884 10.6756 12.5783C11.6522 13.0509 11.7733 13.0197 12.4022 12.1486C12.8553 11.5197 13.035 11.3713 13.2967 11.4298C13.5623 11.4884 15.8397 12.5978 15.9373 12.7189C16.078 12.8869 15.953 13.8088 15.7264 14.2502C15.4022 14.8908 14.3983 15.4806 13.4842 15.5666C12.535 15.6603 10.2733 14.8713 8.93343 13.9806C7.57796 13.0783 6.18343 11.6017 5.09749 9.92594C4.55062 9.08219 4.21859 8.10563 4.21859 7.34391C4.21859 6.5236 4.47249 5.82829 4.99984 5.20719C5.24203 4.91422 5.46859 4.75407 5.75374 4.66813C5.98031 4.59391 6.68343 4.59391 6.85531 4.66422Z" fill="white" fill-opacity="0.7"/>
</g>
<defs>
<clipPath id="clip0_3107_760">
<rect width="20" height="20" fill="white"/>
</clipPath>
</defs>
</svg>
