<svg width="14" height="13" viewBox="0 0 14 13" fill="none" xmlns="http://www.w3.org/2000/svg">
<path d="M6.58016 0.309735C6.62391 0.217094 6.69307 0.138792 6.77961 0.0839536C6.86614 0.0291155 6.96648 0 7.06893 0C7.17138 0 7.27171 0.0291155 7.35825 0.0839536C7.44479 0.138792 7.51395 0.217094 7.55769 0.309735L9.29655 4.09789L13.5199 4.54508C13.9791 4.59312 14.1648 5.14934 13.822 5.45239L10.6723 8.23992L11.5436 12.3043C11.6378 12.746 11.1537 13.0897 10.7536 12.8652L7.06893 10.8002L3.38333 12.8652C2.98326 13.0906 2.49912 12.746 2.59336 12.3043L3.46556 8.23992L0.314924 5.45239C-0.0269342 5.14934 0.157854 4.59312 0.617052 4.54508L4.83946 4.09789L6.57924 0.309735H6.58016Z" fill="#FFC405"/>
</svg>
