<svg width="25" height="24" viewBox="0 0 25 24" fill="none" xmlns="http://www.w3.org/2000/svg">
<path d="M11.5538 0.555556C11.6322 0.38939 11.7563 0.248944 11.9115 0.150583C12.0667 0.0522231 12.2467 0 12.4305 0C12.6142 0 12.7942 0.0522231 12.9494 0.150583C13.1046 0.248944 13.2287 0.38939 13.3071 0.555556L16.426 7.35019L24.0012 8.15228C24.8249 8.23846 25.158 9.23611 24.5431 9.77968L18.8936 14.7795L20.4564 22.0697C20.6255 22.8618 19.7571 23.4783 19.0395 23.0756L12.4305 19.3717L5.81978 23.0756C5.10221 23.48 4.23382 22.8618 4.40286 22.0697L5.96728 14.7795L0.316134 9.77968C-0.297039 9.23611 0.0344058 8.23846 0.858047 8.15228L8.43157 7.35019L11.5521 0.555556H11.5538Z" fill="#FFC405"/>
</svg>
