<svg width="129" height="24" viewBox="0 0 129 24" fill="none" xmlns="http://www.w3.org/2000/svg">
<path fill-rule="evenodd" clip-rule="evenodd" d="M50.5395 12V24H50.9123H51.2852V12V0H50.9123H50.5395V12ZM61.1445 7.22368V14.2895H62.1387H63.1329V8.05263V1.81579H68.3112H73.4894V8.05263V14.2895H74.525H75.5607V7.22368V0.157895H68.3526H61.1445V7.22368ZM78.8748 7.22368V14.2895H79.9104H80.9461V13.3045V12.3195L92.5246 12.2979L104.103 12.2763L104.711 12.0648C105.594 11.7574 106.162 11.4024 106.786 10.7679C107.322 10.2233 107.824 9.41242 107.925 8.92697C107.968 8.72211 108.01 8.7 108.44 8.65303C109.156 8.57487 109.645 8.39108 110.057 8.04553C111.039 7.22242 111.199 5.77982 110.417 4.80355C109.932 4.19676 109.4 3.94003 108.391 3.82445C108.056 3.78616 107.956 3.74353 107.956 3.63971C107.956 3.5655 107.804 3.20589 107.619 2.84053C107.169 1.95466 106.273 1.09255 105.378 0.685026C104.164 0.132316 104.853 0.157895 91.1817 0.157895H78.8748V7.22368ZM114.252 7.22368V14.2895L115.433 14.2884L116.614 14.2873L121.709 8.51226L126.804 2.73718L126.826 8.51337L126.847 14.2895H127.882H128.917V7.22155V0.15371L127.728 0.1755L126.539 0.197368L121.452 5.96045L116.365 11.7234L116.344 5.94071L116.323 0.157895H115.288H114.252V7.22368ZM104.619 2.08216C105.253 2.36147 105.891 2.97987 106.195 3.61161C106.363 3.95882 106.422 4.22716 106.449 4.75074L106.484 5.43576L107.642 5.46126C108.793 5.48668 108.8 5.48803 108.999 5.70837C109.292 6.03347 109.274 6.49279 108.956 6.79555L108.714 7.02632H107.599H106.485L106.449 7.7171C106.421 8.25134 106.361 8.51708 106.184 8.88987C105.908 9.47187 105.28 10.0851 104.642 10.3963L104.186 10.6184L92.566 10.6393L80.9461 10.66V6.23684V1.81366L92.5246 1.83442L104.103 1.85526L104.619 2.08216ZM0 11.9605V16.8158H0.49711H0.99422V14.5658V12.3158L2.17486 12.3169L3.35549 12.318L5.1663 14.5669L6.9771 16.8158H7.55516C7.88963 16.8158 8.12161 16.7837 8.10562 16.7398C8.09046 16.698 7.20793 15.5771 6.14444 14.2491C5.08096 12.921 4.22817 11.7917 4.24938 11.7396C4.27059 11.6874 5.09413 10.6409 6.0794 9.41408C7.06476 8.18724 7.87091 7.16416 7.87091 7.14071C7.87091 7.11726 7.61929 7.10858 7.31166 7.12137L6.75241 7.14474L5.05395 9.29597L3.35549 11.4472L2.17486 11.4473L0.99422 11.4474V9.27632V7.10526H0.49711H0V11.9605ZM11.0332 9.76974C10.9781 11.2352 10.8955 12.7184 10.8497 13.0658C10.5856 15.0677 10.0638 15.8934 9.04549 15.9204L8.57514 15.9329L8.55062 16.3648L8.52601 16.7968L8.90274 16.8506C10.6744 17.1038 11.5591 15.8331 11.84 12.6316C11.8876 12.0888 11.9518 10.8187 11.9824 9.80921L12.0383 7.97368H14.5114H16.9846V12.3985V16.8233L17.5024 16.7998L18.0202 16.7763L18.0416 11.9408L18.0629 7.10526H14.5982H11.1334L11.0332 9.76974ZM20.2648 7.36184C20.3397 7.50292 21.2606 9.17629 22.3112 11.0803L24.2215 14.5423L24.0207 14.8958C23.6425 15.5616 22.8652 16.1028 22.2844 16.1048C22.2146 16.105 21.9692 16.0587 21.739 16.0018L21.3206 15.8984L21.1751 16.2889C21.0043 16.747 21.0202 16.7656 21.7005 16.9011C22.6286 17.0859 23.5797 16.7822 24.2295 16.0935C24.6288 15.6703 24.7157 15.5241 27.6177 10.3978L29.4856 7.09824L28.9441 7.12153L28.4027 7.14474L26.6331 10.3408C25.6597 12.0987 24.8336 13.5457 24.7973 13.5564C24.761 13.567 23.9483 12.1206 22.9913 10.3419L21.2514 7.10818L20.69 7.10668L20.1287 7.10526L20.2648 7.36184ZM31.2351 11.9694V16.8336L33.8242 16.7954C35.8979 16.7648 36.5123 16.7309 36.9104 16.6252C37.9803 16.3412 38.6307 15.889 38.9959 15.1756C39.2045 14.768 39.2271 14.6425 39.2263 13.8947C39.2254 13.1811 39.1977 13.012 39.0266 12.6793C38.7574 12.1559 38.35 11.7868 37.7463 11.5197C37.0222 11.1992 36.4139 11.1328 34.1953 11.1322L32.2259 11.1316L32.2483 9.53289L32.2707 7.93421L35.4812 7.91353L38.6917 7.89292V7.49905V7.10526H34.9634H31.2351V11.9694ZM36.2776 12.0037C37.5876 12.2063 38.1966 12.8257 38.1928 13.9514C38.1898 14.8324 37.8358 15.3561 36.9933 15.726C36.5999 15.8987 36.4693 15.9092 34.4041 15.9335L32.2293 15.959V13.9401V11.9211L33.9899 11.9217C34.9583 11.922 35.9877 11.9589 36.2776 12.0037ZM61.1445 16.3414V16.8158H62.9672H64.79V20.3289V23.8421H65.3699H65.9499V20.3289V16.8158H67.7768H69.6037L69.5788 16.3618L69.554 15.9079L65.3492 15.8874L61.1445 15.867V16.3414ZM72.9688 15.9545C71.5696 16.1496 70.8048 16.9542 70.7993 18.2368C70.7947 19.2937 71.334 20.0192 72.3955 20.3839C72.6099 20.4576 72.7741 20.5604 72.7604 20.6124C72.7468 20.6646 72.3249 21.3625 71.8228 22.1634C71.3208 22.9644 70.8899 23.6698 70.8652 23.7309C70.8291 23.8204 70.9394 23.8418 71.43 23.8405L72.0395 23.8389L73.0337 22.2234L74.0279 20.6077L75.83 20.6065L77.632 20.6053V22.2237V23.8421H78.212H78.7919V19.8553V15.8684L76.1199 15.8781C74.6504 15.8833 73.2323 15.9178 72.9688 15.9545ZM80.2832 16.3851C80.2832 16.8725 80.2919 16.8937 80.5111 16.9439C81.0027 17.0565 81.4063 17.3318 82.3824 18.2203C83.0521 18.8299 83.5628 19.2238 83.8822 19.3769L84.3666 19.6091L83.9434 19.7462C82.7477 20.1335 81.5446 20.9945 80.8941 21.9283C80.5879 22.3678 80.1861 23.2101 80.0846 23.625L80.0315 23.8421H80.6414H81.2512L81.3552 23.5066C81.6878 22.4331 82.7262 21.2739 83.7695 20.8116C84.1077 20.6617 84.4683 20.5161 84.5708 20.4879L84.7572 20.4367V22.1394V23.8421H85.3372H85.9172V22.1394V20.4367L86.1036 20.4866C86.2061 20.5141 86.5669 20.6636 86.9052 20.8189C87.9594 21.3028 88.9252 22.3978 89.3104 23.5461L89.4098 23.8421H90.0203H90.6307L90.5017 23.4276C90.2279 22.5483 89.5385 21.5147 88.8088 20.8896C88.3087 20.4612 87.5354 20.0319 86.8534 19.8039C86.5891 19.7156 86.3609 19.6323 86.3463 19.6187C86.3317 19.6052 86.5532 19.4756 86.8385 19.3307C87.1609 19.1669 87.704 18.7516 88.2735 18.2331C89.3451 17.2577 89.5669 17.1002 90.0398 16.9788L90.3911 16.8887V16.3835V15.8784L90.0804 15.921C89.3361 16.0232 88.7752 16.3714 87.7174 17.3876C87.1602 17.9229 86.5279 18.4762 86.3125 18.6172L85.9208 18.8736L85.8983 17.3908L85.8757 15.9079L85.3165 15.8845L84.7572 15.8612V17.3693V18.8773L84.4886 18.7348C84.3409 18.6563 83.6977 18.1015 83.0594 17.502C81.8525 16.3684 81.3001 16.0139 80.5939 15.9197L80.2832 15.8784V16.3851ZM92.0206 15.9211C91.9902 15.95 91.9653 17.7441 91.9653 19.9079V23.8421H95.7351H99.5048V23.4079V22.9737H96.313H93.1214L93.144 21.6118L93.1667 20.25L96.1286 20.2292L99.0906 20.2086V19.7753V19.3421H96.1079H93.1252V18.0789V16.8158H96.2736H99.422V16.3421V15.8684H95.7489C93.7287 15.8684 92.0509 15.8921 92.0206 15.9211ZM101.245 19.8553V23.8421H101.825H102.405V22.0253V20.2085L105.325 20.2292L108.246 20.25L108.268 22.0461L108.29 23.8421H108.869H109.449L109.427 19.875L109.406 15.9079L108.846 15.8845L108.287 15.8612V17.6016V19.3421H105.346H102.405V17.6053V15.8684H101.825H101.245V19.8553ZM111.325 15.9211C111.295 15.95 111.27 17.7441 111.27 19.9079V23.8421H111.959H112.649L115.501 20.6098L118.354 17.3775L118.375 20.6098L118.397 23.8421H118.976H119.555V19.8553V15.8684L118.913 15.8704L118.271 15.8724L115.371 19.1597L112.471 22.4471L112.449 19.1578L112.428 15.8684H111.904C111.616 15.8684 111.355 15.8921 111.325 15.9211ZM121.461 19.8553V23.8421H125.23H129V23.4079V22.9737H125.81H122.62V21.5921V20.2105H125.603H128.586V19.7763V19.3421H125.603H122.62V18.0789V16.8158H125.769H128.917V16.3421V15.8684H125.189H121.461V19.8553ZM77.632 18.2402V19.6648L75.2352 19.6416C72.964 19.6196 72.8264 19.6099 72.6098 19.4556C72.096 19.0899 71.8943 18.5123 72.0335 17.8054C72.1038 17.4485 72.5156 16.9959 72.8558 16.902C72.9992 16.8624 74.1326 16.8268 75.3743 16.8229L77.632 16.8158V18.2402Z" fill="white"/>
</svg>
