<svg width="260" height="51" viewBox="0 0 260 51" fill="none" xmlns="http://www.w3.org/2000/svg">
<path fill-rule="evenodd" clip-rule="evenodd" d="M101.863 25.5V50.5H102.614H103.365V25.5V0.5H102.614H101.863V25.5ZM123.237 15.5493V30.2697H125.241H127.245V17.2763V4.28289H137.681H148.118V17.2763V30.2697H150.206H152.293V15.5493V0.828947H137.765H123.237V15.5493ZM158.972 15.5493V30.2697H161.06H163.147V28.2178V26.1656L186.484 26.1207L209.82 26.0757L211.045 25.635C212.825 24.9946 213.97 24.2551 215.228 22.9332C216.307 21.7985 217.319 20.1092 217.524 19.0979C217.611 18.6711 217.695 18.625 218.562 18.5271C220.004 18.3643 220.99 17.9814 221.821 17.2615C223.799 15.5467 224.122 12.5413 222.547 10.5074C221.568 9.24326 220.496 8.70839 218.462 8.4676C217.787 8.38783 217.585 8.29901 217.585 8.08273C217.585 7.92812 217.279 7.17895 216.906 6.41776C216 4.5722 214.193 2.77615 212.39 1.92714C209.944 0.775658 211.332 0.828947 183.777 0.828947H158.972V15.5493ZM230.276 15.5493V30.2697L232.656 30.2674L235.035 30.2651L245.305 18.2339L255.575 6.20247L255.618 18.2362L255.66 30.2697H257.747H259.833V15.5449V0.82023L257.436 0.865625L255.039 0.911184L244.787 12.9176L234.534 24.9238L234.492 12.8765L234.449 0.828947H232.363H230.276V15.5493ZM210.859 4.83783C212.138 5.41974 213.423 6.70806 214.037 8.02418C214.374 8.74753 214.495 9.30658 214.548 10.3974L214.619 11.8245L216.952 11.8776C219.273 11.9306 219.287 11.9334 219.687 12.3924C220.278 13.0697 220.242 14.0266 219.602 14.6574L219.114 15.1382H216.867H214.62L214.548 16.5773C214.491 17.6903 214.371 18.2439 214.014 19.0206C213.458 20.2331 212.193 21.5105 210.906 22.1589L209.987 22.6217L186.567 22.6651L163.147 22.7084V13.4934V4.27845L186.484 4.32171L209.82 4.36513L210.859 4.83783ZM0 25.4178V35.5329H1.00193H2.00385V30.8454V26.1579L4.38343 26.1602L6.76301 26.1625L10.4127 30.8477L14.0624 35.5329H15.2274C15.9016 35.5329 16.3691 35.4661 16.3369 35.3745C16.3064 35.2875 14.5276 32.9523 12.3841 30.1855C10.2407 27.4188 8.52189 25.066 8.56464 24.9574C8.60739 24.8487 10.2672 22.6686 12.2531 20.1127C14.239 17.5567 15.8638 15.4253 15.8638 15.3765C15.8638 15.3276 15.3567 15.3095 14.7367 15.3362L13.6095 15.3849L10.1863 19.8666L6.76301 24.3484L4.38343 24.3485L2.00385 24.3487V19.8257V15.3026H1.00193H0V25.4178ZM22.2374 20.8536C22.1264 23.9067 21.9599 26.9967 21.8676 27.7204C21.3354 31.8911 20.2837 33.6112 18.2312 33.6674L17.2832 33.6936L17.2338 34.5934L17.1842 35.4933L17.9435 35.6054C21.5144 36.1329 23.2975 33.4857 23.8636 26.8158C23.9596 25.685 24.0888 23.039 24.1506 20.9359L24.2632 17.1118H29.2477H34.2325V26.3303V35.5485L35.2762 35.4997L36.3198 35.4507L36.3629 25.3766L36.4058 15.3026H29.4227H22.4395L22.2374 20.8536ZM40.8437 15.8372C40.9947 16.1311 42.8507 19.6173 44.9683 23.584L48.8185 30.7964L48.4138 31.5329C47.6515 32.9199 46.085 34.0475 44.9144 34.0516C44.7736 34.0521 44.279 33.9556 43.8151 33.8372L42.9718 33.6217L42.6784 34.4352C42.3342 35.3896 42.3663 35.4283 43.7374 35.7105C45.608 36.0956 47.5249 35.4628 48.8346 34.0281C49.6395 33.1464 49.8146 32.8419 55.6635 22.1622L59.4283 15.288L58.337 15.3365L57.2458 15.3849L53.6791 22.0434C51.7173 25.7056 50.0523 28.7202 49.9791 28.7424C49.9058 28.7646 48.2678 25.7512 46.3391 22.0457L42.8324 15.3087L41.7009 15.3056L40.5695 15.3026L40.8437 15.8372ZM62.9544 25.4363V35.5701L68.1728 35.4905C72.3523 35.4266 73.5907 35.3561 74.3931 35.1359C76.5494 34.5441 77.8604 33.6021 78.5963 32.1158C79.0168 31.2666 79.0624 31.0053 79.0607 29.4474C79.059 27.9605 79.0031 27.6084 78.6583 26.9153C78.1157 25.8248 77.2945 25.0559 76.0778 24.4993C74.6183 23.8317 73.3923 23.6934 68.9207 23.6921L64.9514 23.6908L64.9965 20.3602L65.0417 17.0296L71.5125 16.9865L77.9833 16.9436V16.123V15.3026H70.4688H62.9544V25.4363ZM73.1176 25.5077C75.7579 25.9298 76.9854 27.2202 76.9777 29.5655C76.9717 31.4008 76.2581 32.4919 74.5601 33.2625C73.7672 33.6224 73.504 33.6441 69.3417 33.6947L64.9583 33.7479V29.5418V25.3355L68.5067 25.3368C70.4585 25.3375 72.5333 25.4145 73.1176 25.5077ZM123.237 34.5446V35.5329H126.911H130.584V42.852V50.1711H131.753H132.922V42.852V35.5329H136.604H140.286L140.236 34.5872L140.186 33.6414L131.712 33.5988L123.237 33.5562V34.5446ZM147.069 33.7385C144.249 34.1449 142.707 35.8212 142.696 38.4934C142.687 40.6952 143.774 42.2066 145.913 42.9664C146.345 43.1199 146.676 43.3342 146.649 43.4426C146.621 43.5512 145.771 45.0053 144.759 46.6738C143.747 48.3426 142.879 49.812 142.829 49.9395C142.756 50.1258 142.979 50.1704 143.967 50.1678L145.196 50.1645L147.2 46.7987L149.204 43.4327L152.836 43.4303L156.468 43.4276V46.7993V50.1711H157.636H158.805V41.8651V33.5592L153.42 33.5793C150.458 33.5903 147.6 33.662 147.069 33.7385ZM161.811 34.6355C161.811 35.651 161.829 35.6952 162.27 35.7998C163.261 36.0344 164.075 36.6079 166.042 38.4589C167.392 39.7289 168.421 40.5497 169.065 40.8686L170.041 41.3523L169.188 41.638C166.778 42.4447 164.353 44.2385 163.042 46.1839C162.425 47.0995 161.615 48.8544 161.411 49.7188L161.304 50.1711H162.533H163.762L163.972 49.472C164.642 47.2355 166.735 44.8206 168.838 43.8576C169.519 43.5452 170.246 43.2418 170.453 43.1832L170.829 43.0765V46.6239V50.1711H171.997H173.166V46.6239V43.0765L173.542 43.1804C173.749 43.2377 174.476 43.5492 175.158 43.8727C177.283 44.8808 179.229 47.162 180.006 49.5543L180.206 50.1711H181.436H182.667L182.407 49.3076C181.855 47.4757 180.465 45.3224 178.994 44.0199C177.987 43.1275 176.428 42.2331 175.053 41.7582C174.521 41.5742 174.061 41.4007 174.031 41.3724C174.002 41.3442 174.448 41.0742 175.023 40.7722C175.673 40.4311 176.768 39.5658 177.916 38.4857C180.075 36.4535 180.522 36.1253 181.475 35.8725L182.184 35.6847V34.6322V33.5799L181.557 33.6688C180.057 33.8817 178.927 34.6071 176.795 36.7242C175.672 37.8393 174.397 38.9921 173.963 39.2859L173.174 39.8201L173.128 36.7308L173.083 33.6414L171.956 33.5928L170.829 33.5442V36.686V39.8278L170.287 39.5308C169.989 39.3673 168.693 38.2115 167.407 36.9625C164.974 34.6008 163.861 33.8623 162.437 33.6661L161.811 33.5799V34.6355ZM185.468 33.6689C185.407 33.7291 185.356 37.4668 185.356 41.9748V50.1711H192.954H200.552V49.2664V48.3618H194.119H187.686L187.732 45.5247L187.778 42.6875L193.748 42.6442L199.717 42.6012V41.6985V40.7961H193.706H187.694V38.1645V35.5329H194.04H200.385V34.5461V33.5592H192.982C188.91 33.5592 185.529 33.6086 185.468 33.6689ZM204.059 41.8651V50.1711H205.228H206.397V46.386V42.601L212.283 42.6442L218.17 42.6875L218.214 46.4293L218.259 50.1711H219.427H220.594L220.551 41.9062L220.507 33.6414L219.38 33.5928L218.253 33.5442V37.1701V40.7961H212.325H206.397V37.1776V33.5592H205.228H204.059V41.8651ZM224.376 33.6689C224.315 33.7291 224.265 37.4668 224.265 41.9748V50.1711H225.654H227.044L232.793 43.4372L238.542 36.7031L238.586 43.4372L238.629 50.1711H239.796H240.963V41.8651V33.5592L239.669 33.5633L238.375 33.5674L232.531 40.4161L226.686 47.2648L226.642 40.412L226.599 33.5592H225.543C224.962 33.5592 224.437 33.6086 224.376 33.6689ZM244.804 41.8651V50.1711H252.402H260V49.2664V48.3618H253.571H247.142V45.4836V42.6053H253.153H259.165V41.7007V40.7961H253.153H247.142V38.1645V35.5329H253.487H259.833V34.5461V33.5592H252.319H244.804V41.8651ZM156.468 38.5005V41.4683L151.637 41.4199C147.059 41.3742 146.782 41.3539 146.345 41.0326C145.31 40.2706 144.903 39.0673 145.184 37.5946C145.325 36.851 146.156 35.9081 146.841 35.7125C147.13 35.6301 149.414 35.5559 151.917 35.5477L156.468 35.5329V38.5005Z" fill="white"/>
</svg>
